<svg xmlns="http://www.w3.org/2000/svg" xmlns:xlink="http://www.w3.org/1999/xlink" viewBox="0 0 1366 771"><defs><style>.cls-1{fill:none;}.cls-2{fill:#e71d36;}.cls-3{fill:url(#SVGID_1_);}</style><pattern id="SVGID_1_" data-name="SVGID 1 " width="729" height="556" patternTransform="matrix(0.87, -0.5, 0.5, 0.87, -5637.79, 19726.97)" patternUnits="userSpaceOnUse" viewBox="0 0 729 556"><rect class="cls-1" width="729" height="556"/><rect class="cls-1" width="729" height="556"/><rect class="cls-1" width="729" height="556"/><path class="cls-2" d="M790.5,584c.9-1.5,1.9-3.3,3-5,3.7-6.5,11.7-21.5,19.3-36.2,8.3-.9,16.6-3.6,23.3-8.5,18.7-13.7,24.7-47.2-1-47.2-16.3,0-25.7,18.3-30.3,27.1,0,0-3.3,6.4-7.9,15.1a36.93,36.93,0,0,1-20.1-13.8s-11.5,8.2-3.6,16.8c4,4.1,10.1,7.3,17.4,9.1-7.3,13.7-15.1,28.3-17.7,32.6-.9,1.7-1.8,3.2-2.7,4.6-63.1-11.3-67.2,46.1-36.5,46.1,15,0,30.2-4.6,46.7-25.9,22.7,11,36,26,54.7,26,23.3,0,27.1-25.3,27.1-25.3C844.5,609.4,816.5,594,790.5,584Zm-54.7,26.7c-11.6,0-6.9-24.1,24.3-18C749,606.2,742,610.7,735.8,610.7Zm91.7-96.4c2.4-4.7,5.1-10.6,9.3-10.6,4.9,0,5,10.5-5.5,20.1a27.43,27.43,0,0,1-11.8,5.9c3.1-5.9,5.9-11.3,8-15.4Z"/><path class="cls-2" d="M61.5,584c.9-1.5,1.9-3.3,2.9-5,3.7-6.5,11.7-21.5,19.3-36.2,8.3-.9,16.6-3.6,23.3-8.5,18.7-13.7,24.7-47.2-1-47.2-16.3,0-25.7,18.3-30.3,27.1,0,0-3.3,6.4-7.9,15.1a36.93,36.93,0,0,1-20.1-13.8s-11.5,8.2-3.6,16.8c4,4.1,10.1,7.3,17.4,9.1-7.3,13.7-15.1,28.3-17.7,32.6-.9,1.7-1.8,3.2-2.7,4.6C-22,567.4-26.1,624.7,4.6,624.7c15,0,30.2-4.6,46.7-25.9,22.7,11,36,26,54.7,26,23.3,0,27.1-25.3,27.1-25.3C115.5,609.4,87.5,594,61.5,584ZM6.8,610.7c-11.6,0-6.9-24.1,24.3-18C20,606.2,13,610.7,6.8,610.7Zm91.7-96.4c2.4-4.7,5.1-10.6,9.3-10.6,4.9,0,5,10.5-5.5,20.1a27.43,27.43,0,0,1-11.8,5.9c3.1-5.9,5.9-11.3,8-15.4Z"/><path class="cls-2" d="M259.8,545.4c-4.7,5-43.5,41.8-48.4,46-3.3,2.8-6.4,5.6-7.4,4.5s2.4-8.1,4.3-11.5c5.5-10.4,23.8-44.4,23.8-44.4l-20.4.1s-4.6,8.6-10.5,19.7c-7.7,13.3-29.3,36.1-36.5,36.1-7.4,0-3.6-8.1-1.7-11.5,5.5-10.4,23.8-44.4,23.8-44.4l-20.3.1s-25.7,48.1-31,57.7c-7.3,13.4-4.6,27.1,8.2,27.1,8.3,0,24.2-13.6,37.9-28.7-2.3,4.2-4.1,7.4-5,9.2-7.3,13.3-3.5,19.5,5,19.5,5.4,0,12.3-3.1,23.4-13.6,10.2-9.7,52.5-52.2,56.1-55.9C262.4,554,262.2,542.8,259.8,545.4Z"/><path class="cls-2" d="M344.4,545.4c-4.7,5-43.4,41.8-48.4,46-3.3,2.8-6.3,5.6-7.4,4.5s2.4-8.1,4.4-11.5c5.5-10.4,45.7-85.6,45.7-85.6H318.5s-15,28-29.6,55.4c-1.5-7.5-6.9-14.2-14.2-14.2-11.3,0-27.6,9.2-45.8,36.9S216,625,233.4,625c8.8,0,17.9-6.3,25.5-13.8-3.5,9.5.4,13.8,7.5,13.8,5.4,0,12.4-3.1,23.4-13.6,10.2-9.7,52.5-52.2,56.1-55.9C347,554,346.9,542.8,344.4,545.4Zm-96.9,59.3c-6.5,0-5.2-11.3,2.9-25.1s20.4-25.1,27-25.1,5.2,11.3-3.1,25.1S254.1,604.7,247.5,604.7Z"/><path class="cls-2" d="M486.6,545.4c-4.7,5-43.4,41.8-48.4,46-3.2,2.8-6.3,5.6-7.3,4.5s2.3-8.1,4.2-11.5c5.5-10.4,7.6-14.2,10.8-20.2,9.7-18.6,1.8-24.2-8.1-24.2-6.1,0-24.7,5.5-50.4,39.2,3.5-6.7,5.2-10.1,7.9-15,10.2-17.8,1.9-24.2-8.1-24.2-6,0-24.6,5.5-50.3,39.2l20.9-39H337.6L292.1,625h20.2l.2-.4-.2.4c16.6-30.7,50.8-62.7,58.2-62.7,4.4,0,2.7,5.5-2.6,15.4l-25.1,47.4H363s1.1-2.2,2.9-5.5c17.4-28.9,48-57.2,54.9-57.2,4.3,0,2.8,5.6-2.6,15.5-5.8,10.8-9.6,18.2-14.9,27.8-7.3,13.3-3.5,19.5,5,19.5,5.2,0,12.4-3.1,23.4-13.6,10.4-9.7,52.5-52.2,56.1-55.9C489.3,554,489.1,542.8,486.6,545.4Z"/><path class="cls-2" d="M571.3,545.4c-4.7,5-43.4,41.8-48.4,46-3.3,2.8-6.3,5.6-7.4,4.5s2.4-8.1,4.4-11.5c5.5-10.4,23.8-44.4,23.8-44.4l-20.4.1s-3.1,5.9-7.5,14.2c-1.5-7.6-6.9-14.3-14.2-14.3-11.3,0-27.6,9.2-45.8,36.9S442.9,625,460.3,625c8.8,0,17.9-6.3,25.5-13.8-3.5,9.5.4,13.8,7.5,13.8,5.4,0,12.4-3.1,23.4-13.6,10.2-9.7,52.5-52.2,56.1-55.9C574,554,573.9,542.8,571.3,545.4Zm-96.9,59.3c-6.5,0-5.2-11.3,3-25.1s20.4-25.1,27-25.1,5.2,11.3-3.1,25.1-20.3,25.1-26.9,25.1Z"/><path class="cls-2" d="M631.9,545.4c-4.7,5-43.4,41.8-48.4,46-3.2,2.8-6.3,5.6-7.3,4.5s2.3-8.1,4.2-11.5c5.5-10.4,6.4-11,9.6-17.2,8.6-16.4-4.1-9.9-14-15.5a10.44,10.44,0,0,1-2.8-2.3c7.7-8.3,13.8-16.9,7-21.2-6.3-4.1-17.4-5.9-24.8,3.3-9.3,11.8.6,23,7.5,26.6,3.1,1.5,10.9,2.4,4.3,13.3-6.3,10.5-13.3,24.5-18.6,34-7.2,13.3-3.5,19.5,5,19.5,5.2,0,12.4-3.1,23.4-13.6,10.4-9.7,52.5-52.2,56.1-55.9C634.5,554,634.4,542.8,631.9,545.4Z"/><path class="cls-2" d="M717.7,545.4c-4.7,5-43.5,41.8-48.4,46-3.3,2.8-6.4,5.6-7.4,4.5s2.4-8.1,4.4-11.5c5.5-10.4,23.8-44.4,23.8-44.4l-20.4.1s-4.6,8.6-10.5,19.7c-7.7,13.3-29.3,36.1-36.5,36.1-7.4,0-3.6-8.1-1.7-11.5,5.5-10.4,23.8-44.4,23.8-44.4l-20.3.1s-25.7,48.1-31,57.7c-7.3,13.4-4.6,27.1,8.2,27.1,8.3,0,24.2-13.6,37.9-28.7-2.3,4.2-4.1,7.4-5,9.2-7.3,13.3-3.5,19.5,5,19.5,5.4,0,12.3-3.1,23.4-13.6,10.2-9.7,52.5-52.2,56.1-55.9C720.4,554,720.2,542.8,717.7,545.4Z"/><path class="cls-2" d="M721.6,598.3c6.3-17.8,7.8-34.3,10.6-45.7,0,0,23.5-20.1,1.2-18.6s-23.7,26.5-27.3,46.6a100.77,100.77,0,0,1-3.5,14.4c-16.4,4.3-31.5,7.3-33,16.1-2,11.1,9.2,13.7,17.2,13.7C699.8,624.9,712.9,620.7,721.6,598.3Zm-37.8,15.6c.5-2.7,6.1-4.7,13.6-7-1.7,2.6-3.3,4.3-4.9,6.4C689.3,617.6,682.9,618.6,683.8,613.9Z"/><path class="cls-2" d="M-7.4,598.3C-1.1,580.5.4,564,3.2,552.6c0,0,23.5-20.1,1.2-18.6s-23.7,26.5-27.3,46.6A116,116,0,0,1-26.3,595c-16.4,4.3-31.5,7.3-33,16.1-2,11.1,9.2,13.7,17.2,13.7C-29.2,624.9-16.1,620.7-7.4,598.3Zm-37.8,15.6c.5-2.7,6.1-4.7,13.6-7-1.7,2.6-3.3,4.3-4.9,6.4C-39.7,617.6-46.1,618.6-45.2,613.9Z"/><path class="cls-2" d="M426,445c.9-1.5,1.9-3.3,3-5,3.7-6.5,11.6-21.5,19.3-36.2,8.3-.9,16.6-3.6,23.3-8.5,18.7-13.7,24.7-47.2-1-47.2-16.3,0-25.7,18.3-30.3,27.1,0,0-3.3,6.4-7.9,15.1a36.93,36.93,0,0,1-20.1-13.8s-11.5,8.2-3.6,16.8c4,4.1,10.1,7.3,17.4,9.1-7.3,13.7-15.1,28.3-17.7,32.6-.9,1.7-1.8,3.2-2.7,4.6-63.1-11.3-67.2,46.1-36.5,46.1,15,0,30.2-4.6,46.7-25.9,22.7,11,36,26,54.7,26,23.3,0,27.1-25.4,27.1-25.4C480,470.4,452,455,426,445Zm-54.7,26.7c-11.6,0-6.9-24.1,24.3-18C384.5,467.2,377.5,471.7,371.3,471.7ZM463,375.3c2.4-4.7,5.1-10.6,9.3-10.6,4.9,0,5,10.5-5.5,20.1a28,28,0,0,1-11.8,5.9C458.1,384.7,460.9,379.4,463,375.3Z"/><path class="cls-2" d="M624.3,406.4c-4.7,5-43.5,41.9-48.4,45.9-3.3,2.8-6.4,5.6-7.4,4.5s2.4-8.1,4.3-11.5c5.5-10.4,23.8-44.4,23.8-44.4l-20.4.1s-4.6,8.6-10.5,19.7c-7.7,13.3-29.3,36.1-36.5,36.1-7.4,0-3.6-8.1-1.7-11.5,5.5-10.4,23.8-44.4,23.8-44.4L531,401s-25.7,48.1-31,57.7c-7.3,13.4-4.6,27.1,8.2,27.1,8.3,0,24.2-13.6,37.9-28.7-2.3,4.2-4.1,7.4-5,9.2-7.3,13.3-3.5,19.5,5,19.5,5.4,0,12.3-3.1,23.4-13.6,10.2-9.7,52.5-52.2,56.1-55.9C626.9,415,626.7,403.8,624.3,406.4Z"/><path class="cls-2" d="M708.9,406.4c-4.7,5-43.4,41.9-48.4,45.9-3.3,2.8-6.3,5.6-7.4,4.5s2.4-8.1,4.4-11.5c5.5-10.4,45.7-85.6,45.7-85.6H683s-15,28-29.6,55.4c-1.5-7.5-6.9-14.2-14.2-14.2-11.3,0-27.7,9.2-45.8,36.9s-12.9,48.1,4.5,48.1c8.8,0,17.9-6.3,25.5-13.8-3.5,9.5.4,13.8,7.5,13.8,5.4,0,12.4-3.1,23.4-13.6,10.2-9.7,52.5-52.2,56.1-55.9C711.6,415,711.4,403.8,708.9,406.4ZM612,465.7c-6.5,0-5.2-11.3,3-25.1s20.3-25.1,27-25.1,5.2,11.3-3.1,25.1S618.6,465.7,612,465.7Z"/><path class="cls-2" d="M851.1,406.4c-4.7,5-43.4,41.9-48.4,45.9-3.2,2.8-6.3,5.6-7.3,4.5s2.3-8.1,4.2-11.5c5.5-10.4,7.6-14.2,10.8-20.2,9.7-18.6,1.8-24.2-8.1-24.2-6.1,0-24.7,5.5-50.4,39.2,3.5-6.6,5.2-10.1,7.9-15,10.2-17.8,1.9-24.2-8.1-24.2-6,0-24.6,5.5-50.3,39.2l20.9-39H702.1l-45.6,84.8h20.2l.2-.4-.2.4c16.6-30.7,50.8-62.7,58.2-62.7,4.3,0,2.7,5.5-2.6,15.4L707.2,486h20.3s1.2-2.2,2.9-5.5c17.4-28.9,48-57.2,54.9-57.2,4.3,0,2.8,5.6-2.6,15.5-5.8,10.8-9.6,18.2-14.8,27.8-7.3,13.3-3.5,19.5,5,19.5,5.2,0,12.4-3.1,23.4-13.6,10.4-9.7,52.5-52.2,56.1-55.9C853.8,415,853.6,403.8,851.1,406.4Z"/><path class="cls-2" d="M122.1,406.4c-4.7,5-43.4,41.9-48.4,45.9-3.2,2.8-6.3,5.6-7.3,4.5s2.3-8.1,4.2-11.5c5.5-10.4,7.6-14.2,10.8-20.2,9.7-18.6,1.8-24.2-8.1-24.2-6.1,0-24.7,5.5-50.4,39.2,3.5-6.6,5.2-10.1,7.9-15,10.2-17.8,1.9-24.2-8.1-24.2-6,0-24.6,5.5-50.3,39.2l20.9-39H-26.9l-45.6,84.8h20.2l.2-.4-.2.4C-35.7,455.2-1.5,423.1,6,423.1c4.3,0,2.7,5.5-2.6,15.4l-25.1,47.4H-1.5s1.2-2.2,2.9-5.5c17.4-28.9,48-57.2,54.9-57.2,4.4,0,2.8,5.6-2.6,15.5-5.8,10.8-9.6,18.2-14.9,27.8-7.3,13.3-3.5,19.5,5,19.5,5.2,0,12.4-3.1,23.4-13.6,10.4-9.7,52.5-52.2,56.1-55.9C124.8,415,124.6,403.8,122.1,406.4Z"/><path class="cls-2" d="M206.8,406.4c-4.7,5-43.4,41.9-48.4,45.9-3.3,2.8-6.3,5.6-7.4,4.5s2.4-8.1,4.4-11.5c5.5-10.4,23.8-44.4,23.8-44.4l-20.4.1s-3.1,5.9-7.6,14.2c-1.5-7.5-6.9-14.3-14.2-14.3-11.3,0-27.7,9.2-45.8,36.9s-12.9,48.1,4.5,48.1c8.8,0,17.9-6.3,25.5-13.8-3.5,9.5.4,13.8,7.6,13.8,5.4,0,12.4-3.1,23.4-13.6,10.2-9.7,52.5-52.2,56.1-55.9C209.5,415,209.4,403.8,206.8,406.4Zm-96.9,59.3c-6.5,0-5.2-11.3,3-25.1s20.4-25.1,27-25.1,5.2,11.3-3.1,25.1S116.6,465.7,109.9,465.7Z"/><path class="cls-2" d="M267.3,406.4c-4.7,5-43.4,41.9-48.4,45.9-3.2,2.8-6.3,5.6-7.3,4.5s2.3-8.1,4.2-11.5c5.5-10.4,6.4-11,9.6-17.2,8.6-16.4-4.1-9.9-14-15.5a10.44,10.44,0,0,1-2.8-2.3c7.7-8.3,13.8-16.9,7-21.2-6.3-4.1-17.4-5.9-24.8,3.3-9.4,11.8.6,23,7.6,26.6,3.1,1.5,10.9,2.4,4.3,13.3-6.3,10.5-13.3,24.5-18.6,34-7.2,13.3-3.5,19.5,5,19.5,5.2,0,12.4-3.1,23.4-13.6,10.4-9.7,52.5-52.2,56.1-55.9C270,415,269.9,403.8,267.3,406.4Z"/><path class="cls-2" d="M353.2,406.4c-4.7,5-43.5,41.9-48.4,45.9-3.3,2.8-6.4,5.6-7.4,4.5s2.4-8.1,4.4-11.5c5.5-10.4,23.8-44.4,23.8-44.4l-20.4.1s-4.6,8.6-10.5,19.7c-7.7,13.3-29.3,36.1-36.5,36.1-7.4,0-3.6-8.1-1.7-11.5,5.5-10.4,23.8-44.4,23.8-44.4l-20.4.1s-25.7,48.1-31,57.7c-7.3,13.4-4.6,27.1,8.2,27.1,8.3,0,24.2-13.6,37.9-28.7-2.3,4.2-4.1,7.4-5,9.2-7.3,13.3-3.5,19.5,5,19.5,5.4,0,12.3-3.1,23.4-13.6,10.2-9.7,52.5-52.2,56.1-55.9C355.9,415,355.7,403.8,353.2,406.4Z"/><path class="cls-2" d="M357.1,459.3c6.3-17.8,7.8-34.3,10.6-45.7,0,0,23.5-20.1,1.1-18.6s-23.7,26.5-27.3,46.6A100.77,100.77,0,0,1,338,456c-16.4,4.3-31.5,7.3-33,16.1-2,11.1,9.2,13.7,17.1,13.7C335.3,485.9,348.4,481.7,357.1,459.3Zm-37.8,15.6c.5-2.7,6.1-4.7,13.6-7-1.7,2.6-3.3,4.3-4.9,6.4-3.2,4.3-9.6,5.3-8.7.6Z"/><path class="cls-2" d="M790.5,306c.9-1.5,1.9-3.3,3-5,3.7-6.5,11.7-21.5,19.3-36.2,8.3-.9,16.6-3.6,23.3-8.5,18.7-13.7,24.7-47.2-1-47.2-16.3,0-25.7,18.3-30.3,27.1,0,0-3.3,6.4-7.9,15.1a36.93,36.93,0,0,1-20.1-13.8s-11.5,8.2-3.6,16.8c4,4.1,10.1,7.3,17.4,9.1-7.3,13.7-15.1,28.3-17.7,32.6-.9,1.7-1.8,3.2-2.7,4.6-63.1-11.3-67.2,46.1-36.5,46.1,15,0,30.2-4.6,46.7-25.9,22.7,11,36,26,54.7,26,23.3,0,27.1-25.4,27.1-25.4C844.5,331.4,816.5,316,790.5,306Zm-54.7,26.7c-11.6,0-6.9-24.1,24.3-18C749,328.2,742,332.7,735.8,332.7Zm91.7-96.4c2.4-4.7,5.1-10.6,9.3-10.6,4.9,0,5,10.5-5.5,20.1a27.43,27.43,0,0,1-11.8,5.9c3.1-5.9,5.9-11.3,8-15.4Z"/><path class="cls-2" d="M61.5,306c.9-1.5,1.9-3.3,2.9-5,3.7-6.5,11.7-21.5,19.3-36.2,8.3-.9,16.6-3.6,23.3-8.5,18.7-13.7,24.7-47.2-1-47.2-16.3,0-25.7,18.3-30.3,27.1,0,0-3.3,6.4-7.9,15.1a36.93,36.93,0,0,1-20.1-13.8s-11.5,8.2-3.6,16.8c4,4.1,10.1,7.3,17.4,9.1-7.3,13.7-15.1,28.3-17.7,32.6-.9,1.7-1.8,3.2-2.7,4.6C-22,289.4-26.1,346.7,4.6,346.7c15,0,30.2-4.6,46.7-25.9,22.7,11,36,26,54.7,26,23.3,0,27.1-25.4,27.1-25.4C115.5,331.4,87.5,316,61.5,306ZM6.8,332.7c-11.6,0-6.9-24.1,24.3-18C20,328.2,13,332.7,6.8,332.7Zm91.7-96.4c2.4-4.7,5.1-10.6,9.3-10.6,4.9,0,5,10.5-5.5,20.1a27.43,27.43,0,0,1-11.8,5.9C93.6,245.8,96.4,240.4,98.5,236.3Z"/><path class="cls-2" d="M259.8,267.4c-4.7,5-43.5,41.9-48.4,46-3.3,2.8-6.4,5.6-7.4,4.5s2.4-8.1,4.3-11.5c5.5-10.4,23.8-44.4,23.8-44.4l-20.4.1s-4.6,8.6-10.5,19.7c-7.7,13.3-29.3,36.1-36.5,36.1-7.4,0-3.6-8.1-1.7-11.5,5.5-10.4,23.8-44.4,23.8-44.4l-20.3.1s-25.7,48.1-31,57.7c-7.3,13.4-4.6,27.1,8.2,27.1,8.3,0,24.2-13.6,37.9-28.7-2.3,4.2-4.1,7.4-5,9.2-7.3,13.3-3.5,19.5,5,19.5,5.4,0,12.3-3.1,23.4-13.6,10.2-9.7,52.5-52.2,56.1-55.9C262.4,276,262.2,264.8,259.8,267.4Z"/><path class="cls-2" d="M344.4,267.4c-4.7,5-43.4,41.9-48.4,46-3.3,2.8-6.3,5.6-7.4,4.5s2.4-8.1,4.4-11.5c5.5-10.4,45.7-85.6,45.7-85.6H318.5s-15,28-29.6,55.4c-1.5-7.5-6.9-14.2-14.2-14.2-11.3,0-27.6,9.2-45.8,36.9S216,347,233.4,347c8.8,0,17.9-6.3,25.5-13.8-3.5,9.5.4,13.8,7.5,13.8,5.4,0,12.4-3.1,23.4-13.6,10.2-9.7,52.5-52.2,56.1-55.9C347,276,346.9,264.8,344.4,267.4Zm-96.9,59.3c-6.5,0-5.2-11.3,2.9-25.1s20.4-25.1,27-25.1,5.2,11.3-3.1,25.1S254.1,326.7,247.5,326.7Z"/><path class="cls-2" d="M486.6,267.4c-4.7,5-43.4,41.9-48.4,46-3.2,2.8-6.3,5.6-7.3,4.5s2.3-8.1,4.2-11.5c5.5-10.4,7.6-14.2,10.8-20.2,9.7-18.6,1.8-24.2-8.1-24.2-6.1,0-24.7,5.5-50.4,39.2,3.5-6.6,5.2-10.1,7.9-15,10.2-17.8,1.9-24.2-8.1-24.2-6,0-24.6,5.5-50.3,39.2l20.9-39H337.6L292.1,347h20.2l.2-.4-.2.4c16.6-30.7,50.8-62.7,58.2-62.7,4.4,0,2.7,5.5-2.6,15.4l-25.1,47.4H363s1.1-2.2,2.9-5.5c17.4-28.9,48-57.2,54.9-57.2,4.3,0,2.8,5.6-2.6,15.5-5.8,10.8-9.6,18.2-14.9,27.8-7.3,13.3-3.5,19.5,5,19.5,5.2,0,12.4-3.1,23.4-13.6,10.4-9.7,52.5-52.2,56.1-55.9C489.3,276,489.1,264.8,486.6,267.4Z"/><path class="cls-2" d="M571.3,267.4c-4.7,5-43.4,41.9-48.4,46-3.3,2.8-6.3,5.6-7.4,4.5s2.4-8.1,4.4-11.5c5.5-10.4,23.8-44.4,23.8-44.4l-20.4.1s-3.1,5.9-7.5,14.2c-1.5-7.5-6.9-14.3-14.2-14.3-11.3,0-27.6,9.2-45.8,36.9S442.9,347,460.3,347c8.8,0,17.9-6.3,25.5-13.8-3.5,9.5.4,13.8,7.5,13.8,5.4,0,12.4-3.1,23.4-13.6,10.2-9.7,52.5-52.2,56.1-55.9C574,276,573.9,264.8,571.3,267.4Zm-96.9,59.3c-6.5,0-5.2-11.3,3-25.1s20.4-25.1,27-25.1,5.2,11.3-3.1,25.1-20.3,25.1-26.9,25.1Z"/><path class="cls-2" d="M631.9,267.4c-4.7,5-43.4,41.9-48.4,46-3.2,2.8-6.3,5.6-7.3,4.5s2.3-8.1,4.2-11.5c5.5-10.4,6.4-11,9.6-17.1,8.6-16.4-4.1-9.9-14-15.5a10.44,10.44,0,0,1-2.8-2.3c7.7-8.3,13.8-16.9,7-21.2-6.3-4.1-17.4-5.9-24.8,3.3-9.3,11.8.6,23,7.5,26.6,3.1,1.5,10.9,2.4,4.3,13.3-6.3,10.5-13.3,24.5-18.6,34-7.2,13.3-3.5,19.5,5,19.5,5.2,0,12.4-3.1,23.4-13.6,10.4-9.7,52.5-52.2,56.1-55.9C634.5,276,634.4,264.8,631.9,267.4Z"/><path class="cls-2" d="M717.7,267.4c-4.7,5-43.5,41.9-48.4,46-3.3,2.8-6.4,5.6-7.4,4.5s2.4-8.1,4.4-11.5c5.5-10.4,23.8-44.4,23.8-44.4l-20.4.1s-4.6,8.6-10.5,19.7c-7.7,13.3-29.3,36.1-36.5,36.1-7.4,0-3.6-8.1-1.7-11.5,5.5-10.4,23.8-44.4,23.8-44.4l-20.3.1s-25.7,48.1-31,57.7c-7.3,13.4-4.6,27.1,8.2,27.1,8.3,0,24.2-13.6,37.9-28.7-2.3,4.2-4.1,7.4-5,9.2-7.3,13.3-3.5,19.5,5,19.5,5.4,0,12.3-3.1,23.4-13.6,10.2-9.7,52.5-52.2,56.1-55.9C720.4,276,720.2,264.8,717.7,267.4Z"/><path class="cls-2" d="M721.6,320.2c6.3-17.8,7.8-34.3,10.6-45.7,0,0,23.5-20.1,1.2-18.6s-23.7,26.5-27.3,46.6a100.77,100.77,0,0,1-3.5,14.4c-16.4,4.4-31.5,7.3-33,16.1-2,11.1,9.2,13.7,17.2,13.7C699.8,346.9,712.9,342.7,721.6,320.2Zm-37.8,15.7c.5-2.7,6.1-4.7,13.6-7a75.76,75.76,0,0,1-4.9,6.4C689.3,339.6,682.9,340.6,683.8,335.9Z"/><path class="cls-2" d="M-7.4,320.2c6.3-17.8,7.8-34.3,10.6-45.7,0,0,23.5-20.1,1.2-18.6s-23.7,26.5-27.3,46.6a116,116,0,0,1-3.4,14.4c-16.4,4.4-31.5,7.3-33,16.1-2,11.1,9.2,13.7,17.2,13.7C-29.2,346.9-16.1,342.7-7.4,320.2Zm-37.8,15.7c.5-2.7,6.1-4.7,13.6-7a75.76,75.76,0,0,1-4.9,6.4C-39.7,339.6-46.1,340.6-45.2,335.9Z"/><path class="cls-2" d="M426,167c.9-1.5,1.9-3.3,3-5,3.7-6.5,11.6-21.5,19.3-36.2,8.3-.9,16.6-3.6,23.3-8.4,18.7-13.7,24.7-47.2-1-47.2-16.3,0-25.7,18.3-30.3,27.1,0,0-3.3,6.4-7.9,15.1a36.93,36.93,0,0,1-20.1-13.8s-11.5,8.2-3.6,16.8c4,4.1,10.1,7.3,17.4,9.1-7.3,13.7-15.1,28.3-17.7,32.6-.9,1.7-1.8,3.2-2.7,4.6-63.1-11.3-67.2,46.1-36.5,46.1,15,0,30.2-4.6,46.7-25.9,22.7,11,36,26,54.7,26,23.3,0,27.1-25.4,27.1-25.4C480,192.4,452,177,426,167Zm-54.7,26.7c-11.6,0-6.9-24.1,24.3-18C384.5,189.2,377.5,193.7,371.3,193.7ZM463,97.3c2.4-4.7,5.1-10.6,9.3-10.6,4.9,0,5,10.5-5.5,20.1a28,28,0,0,1-11.8,5.9C458.1,106.7,460.9,101.4,463,97.3Z"/><path class="cls-2" d="M624.3,128.4c-4.7,5-43.5,41.9-48.4,46-3.3,2.8-6.4,5.6-7.4,4.5s2.4-8.1,4.3-11.5c5.5-10.4,23.8-44.4,23.8-44.4l-20.4.1s-4.6,8.6-10.5,19.7c-7.7,13.3-29.3,36.1-36.5,36.1-7.4,0-3.6-8.1-1.7-11.5C533,157,551.3,123,551.3,123l-20.3.1s-25.7,48.1-31,57.7c-7.3,13.4-4.6,27.1,8.2,27.1,8.3,0,24.2-13.6,37.9-28.7-2.3,4.2-4.1,7.4-5,9.2-7.3,13.3-3.5,19.5,5,19.5,5.4,0,12.3-3.1,23.4-13.6,10.2-9.7,52.5-52.2,56.1-55.9C626.9,137,626.7,125.8,624.3,128.4Z"/><path class="cls-2" d="M708.9,128.4c-4.7,5-43.4,41.9-48.4,46-3.3,2.8-6.3,5.6-7.4,4.5s2.4-8.1,4.4-11.5c5.5-10.4,45.7-85.6,45.7-85.6H683s-15,28-29.6,55.4c-1.5-7.6-6.9-14.2-14.2-14.2-11.3,0-27.7,9.2-45.8,36.9S580.5,208,597.9,208c8.8,0,17.9-6.3,25.5-13.8-3.5,9.5.4,13.8,7.5,13.8,5.4,0,12.4-3.1,23.4-13.6,10.2-9.7,52.5-52.2,56.1-55.9C711.6,137,711.4,125.8,708.9,128.4ZM612,187.6c-6.5,0-5.2-11.3,3-25.1s20.3-25.1,27-25.1,5.2,11.3-3.1,25.1S618.6,187.6,612,187.6Z"/><path class="cls-2" d="M851.1,128.4c-4.7,5-43.4,41.9-48.4,46-3.2,2.8-6.3,5.6-7.3,4.5s2.3-8.1,4.2-11.5c5.5-10.4,7.6-14.2,10.8-20.2,9.7-18.6,1.8-24.2-8.1-24.2-6.1,0-24.7,5.5-50.4,39.2,3.5-6.6,5.2-10.1,7.9-15,10.2-17.8,1.9-24.2-8.1-24.2-6,0-24.6,5.5-50.3,39.2l20.9-39H702.1L656.5,208h20.2l.2-.4-.2.4c16.6-30.7,50.8-62.7,58.2-62.7,4.3,0,2.7,5.5-2.6,15.4l-25.1,47.4h20.3s1.2-2.2,2.9-5.5c17.4-28.9,48-57.2,54.9-57.2,4.3,0,2.8,5.6-2.6,15.5-5.8,10.8-9.6,18.2-14.8,27.8-7.3,13.3-3.5,19.5,5,19.5,5.2,0,12.4-3.1,23.4-13.6,10.4-9.7,52.5-52.2,56.1-55.9C853.8,137,853.6,125.8,851.1,128.4Z"/><path class="cls-2" d="M122.1,128.4c-4.7,5-43.4,41.9-48.4,46-3.2,2.8-6.3,5.6-7.3,4.5s2.3-8.1,4.2-11.5c5.5-10.4,7.6-14.2,10.8-20.2,9.7-18.6,1.8-24.2-8.1-24.2-6.1,0-24.7,5.5-50.4,39.2,3.5-6.6,5.2-10.1,7.9-15C41,129.4,32.7,123,22.7,123c-6,0-24.6,5.5-50.3,39.2l20.9-39H-26.9L-72.5,208h20.2l.2-.4-.2.4C-35.7,177.2-1.5,145.2,6,145.2c4.3,0,2.7,5.5-2.6,15.4L-21.7,208H-1.5s1.2-2.2,2.9-5.5c17.4-28.9,48-57.2,54.9-57.2,4.4,0,2.8,5.6-2.6,15.5-5.8,10.8-9.6,18.2-14.9,27.8-7.3,13.3-3.5,19.5,5,19.5,5.2,0,12.4-3.1,23.4-13.6,10.4-9.7,52.5-52.2,56.1-55.9C124.8,137,124.6,125.8,122.1,128.4Z"/><path class="cls-2" d="M206.8,128.4c-4.7,5-43.4,41.9-48.4,46-3.3,2.8-6.3,5.6-7.4,4.5s2.4-8.1,4.4-11.5c5.5-10.4,23.8-44.4,23.8-44.4l-20.4.1s-3.1,5.9-7.6,14.2c-1.5-7.6-6.9-14.3-14.2-14.3-11.3,0-27.7,9.2-45.8,36.9S78.3,208,95.7,208c8.8,0,17.9-6.3,25.5-13.8-3.5,9.5.4,13.8,7.6,13.8,5.4,0,12.4-3.1,23.4-13.6,10.2-9.7,52.5-52.2,56.1-55.9C209.5,137,209.4,125.8,206.8,128.4Zm-96.9,59.2c-6.5,0-5.2-11.3,3-25.1s20.4-25.1,27-25.1,5.2,11.3-3.1,25.1S116.6,187.6,109.9,187.6Z"/><path class="cls-2" d="M267.3,128.4c-4.7,5-43.4,41.9-48.4,46-3.2,2.8-6.3,5.6-7.3,4.5s2.3-8.1,4.2-11.5c5.5-10.4,6.4-11,9.6-17.1,8.6-16.4-4.1-9.9-14-15.5a10.44,10.44,0,0,1-2.8-2.3c7.7-8.3,13.8-16.9,7-21.2-6.3-4.1-17.4-5.9-24.8,3.3-9.4,11.8.6,23,7.6,26.6,3.1,1.5,10.9,2.4,4.3,13.3-6.3,10.5-13.3,24.4-18.6,34-7.2,13.3-3.5,19.5,5,19.5,5.2,0,12.4-3.1,23.4-13.6,10.4-9.7,52.5-52.2,56.1-55.9C270,137,269.9,125.8,267.3,128.4Z"/><path class="cls-2" d="M353.2,128.4c-4.7,5-43.5,41.9-48.4,46-3.3,2.8-6.4,5.6-7.4,4.5s2.4-8.1,4.4-11.5c5.5-10.4,23.8-44.4,23.8-44.4l-20.4.1s-4.6,8.6-10.5,19.7c-7.7,13.3-29.3,36.1-36.5,36.1-7.4,0-3.6-8.1-1.7-11.5C262,157,280.3,123,280.3,123l-20.4.1s-25.7,48.1-31,57.7c-7.3,13.4-4.6,27.1,8.2,27.1,8.3,0,24.2-13.6,37.9-28.7-2.3,4.2-4.1,7.4-5,9.2-7.3,13.3-3.5,19.5,5,19.5,5.4,0,12.3-3.1,23.4-13.6,10.2-9.7,52.5-52.2,56.1-55.9C355.9,137,355.7,125.8,353.2,128.4Z"/><path class="cls-2" d="M357.1,181.3c6.3-17.8,7.8-34.3,10.6-45.7,0,0,23.5-20.1,1.1-18.6s-23.7,26.5-27.3,46.6A100.77,100.77,0,0,1,338,178c-16.4,4.4-31.5,7.3-33,16.1-2,11.1,9.2,13.7,17.1,13.7C335.3,207.9,348.4,203.6,357.1,181.3Zm-37.8,15.6c.5-2.7,6.1-4.7,13.6-7-1.7,2.6-3.3,4.3-4.9,6.4-3.2,4.3-9.6,5.3-8.7.6Z"/><path class="cls-2" d="M790.5,28c.9-1.5,1.9-3.3,3-5,3.7-6.5,11.7-21.5,19.3-36.2,8.3-.9,16.6-3.6,23.3-8.5,18.7-13.7,24.7-47.2-1-47.2-16.3,0-25.7,18.3-30.3,27.1,0,0-3.3,6.4-7.9,15.1a36.93,36.93,0,0,1-20.1-13.8s-11.5,8.2-3.6,16.8c4,4.1,10.1,7.3,17.4,9.1-7.4,13.7-15.2,28.3-17.8,32.7-.9,1.7-1.8,3.2-2.7,4.6C707,11.4,702.9,68.8,733.6,68.8c15,0,30.2-4.6,46.7-25.9,22.7,11,36,26,54.7,26,23.3,0,27.1-25.4,27.1-25.4C844.5,53.4,816.5,38,790.5,28ZM735.8,54.7c-11.6,0-6.9-24.1,24.3-18C749,50.2,742,54.7,735.8,54.7Zm91.7-96.4c2.4-4.7,5.1-10.6,9.3-10.6,4.9,0,5,10.5-5.5,20.1a27.43,27.43,0,0,1-11.8,5.9c3.1-5.9,5.9-11.3,8-15.4Z"/><path class="cls-2" d="M61.5,28c.9-1.5,1.9-3.3,2.9-5,3.7-6.5,11.7-21.5,19.3-36.2,8.3-.9,16.6-3.6,23.3-8.5,18.7-13.7,24.7-47.2-1-47.2-16.3,0-25.7,18.3-30.3,27.1,0,0-3.3,6.4-7.9,15.1A36.93,36.93,0,0,1,47.7-40.5s-11.5,8.2-3.6,16.8c4,4.1,10.1,7.3,17.4,9.1C54.2-.9,46.4,13.7,43.8,18.1c-.9,1.7-1.8,3.2-2.7,4.6C-22,11.4-26.1,68.8,4.6,68.8c15,0,30.2-4.6,46.7-25.9,22.7,11,36,26,54.7,26,23.3,0,27.1-25.4,27.1-25.4C115.5,53.4,87.5,38,61.5,28ZM6.8,54.7c-11.6,0-6.9-24.1,24.3-18C20,50.2,13,54.7,6.8,54.7ZM98.5-41.7c2.4-4.7,5.1-10.6,9.3-10.6,4.9,0,5,10.5-5.5,20.1a27.43,27.43,0,0,1-11.8,5.9C93.6-32.2,96.4-37.6,98.5-41.7Z"/><path class="cls-2" d="M259.8-10.6c-4.7,5-43.5,41.8-48.4,46-3.3,2.8-6.3,5.7-7.4,4.5s2.4-8.1,4.3-11.5C213.8,18,232.1-16,232.1-16l-20.4.1s-4.6,8.6-10.5,19.7c-7.7,13.3-29.3,36.1-36.5,36.1-7.4,0-3.6-8.1-1.7-11.5C168.5,18,186.8-16,186.8-16l-20.3.1s-25.7,48.1-31,57.7c-7.3,13.4-4.6,27.1,8.2,27.1,8.3,0,24.2-13.6,37.9-28.7-2.3,4.2-4.1,7.4-5,9.2-7.3,13.3-3.5,19.5,5,19.5,5.4,0,12.3-3.1,23.4-13.6,10.2-9.7,52.5-52.2,56.1-55.9C262.4-2,262.2-13.2,259.8-10.6Z"/><path class="cls-2" d="M344.4-10.6c-4.7,5-43.3,41.8-48.3,46-3.3,2.8-6.3,5.6-7.4,4.5s2.4-8.1,4.4-11.5c5.5-10.4,45.7-85.6,45.7-85.6H318.5s-15,28-29.6,55.4C287.4-9.3,282-16,274.7-16c-11.3,0-27.6,9.2-45.8,36.9S216,69,233.4,69c8.8,0,17.9-6.3,25.5-13.8-3.5,9.5.4,13.8,7.5,13.8,5.4,0,12.4-3.1,23.4-13.6C300,45.7,342.3,3.2,345.9-.5,347-2,346.9-13.2,344.4-10.6ZM247.5,48.7c-6.5,0-5.2-11.3,2.9-25.1s20.4-25.1,27-25.1,5.2,11.3-3.1,25.1S254.1,48.7,247.5,48.7Z"/><path class="cls-2" d="M486.6-10.6c-4.7,5-43.4,41.8-48.4,46-3.2,2.8-6.3,5.6-7.3,4.5s2.3-8.1,4.2-11.5c5.5-10.4,7.6-14.2,10.8-20.2,9.7-18.6,1.8-24.2-8.1-24.2-6.1,0-24.7,5.5-50.4,39.2,3.5-6.7,5.2-10.1,7.9-15C405.5-9.6,397.2-16,387.2-16c-6,0-24.6,5.5-50.3,39.2l20.9-39H337.6L292.1,69h20.2l.2-.4-.2.4c16.6-30.7,50.8-62.7,58.2-62.7,4.3,0,2.7,5.5-2.6,15.4L342.8,69.1H363s1.1-2.2,2.9-5.5c17.4-28.9,48-57.2,54.9-57.2,4.3,0,2.8,5.6-2.6,15.5-5.8,10.8-9.6,18.2-14.9,27.8-7.3,13.3-3.5,19.5,5,19.5,5.2,0,12.4-3.1,23.4-13.6,10.4-9.7,52.5-52.2,56.1-55.9C489.3-2,489.1-13.2,486.6-10.6Z"/><path class="cls-2" d="M571.3-10.6c-4.7,5-43.4,41.8-48.4,46-3.3,2.8-6.3,5.6-7.4,4.5s2.4-8.1,4.4-11.5C525.4,18,543.7-16,543.7-16l-20.4.1s-3.1,5.9-7.5,14.2C514.3-9.2,508.9-16,501.6-16c-11.3,0-27.6,9.2-45.8,36.9S442.9,69,460.3,69c8.8,0,17.9-6.3,25.5-13.8-3.5,9.5.4,13.8,7.5,13.8,5.4,0,12.4-3.1,23.4-13.6,10.2-9.7,52.5-52.2,56.1-55.9C574-2,573.9-13.2,571.3-10.6ZM474.4,48.7c-6.5,0-5.2-11.3,3-25.1s20.3-25.1,27-25.1,5.2,11.3-3.1,25.1S481,48.7,474.4,48.7Z"/><path class="cls-2" d="M631.9-10.6c-4.7,5-43.4,41.8-48.4,46-3.2,2.8-6.3,5.6-7.3,4.5s2.3-8.1,4.2-11.5c5.5-10.4,6.4-11,9.6-17.2,8.6-16.4-4.1-9.9-14-15.5a10.44,10.44,0,0,1-2.8-2.3c7.7-8.3,13.8-16.9,7-21.2-6.3-4.1-17.4-5.9-24.8,3.3-9.3,11.8.6,23,7.5,26.6,3.1,1.5,10.9,2.4,4.3,13.3C561,25.9,554,39.8,548.7,49.5c-7.2,13.3-3.5,19.5,5,19.5,5.2,0,12.4-3.1,23.4-13.6,10.4-9.7,52.5-52.2,56.1-55.9C634.5-2,634.4-13.2,631.9-10.6Z"/><path class="cls-2" d="M717.7-10.6c-4.7,5-43.5,41.8-48.4,46-3.3,2.8-6.4,5.6-7.4,4.5s2.4-8.1,4.4-11.5C671.8,18,690.1-16,690.1-16l-20.4.1s-4.6,8.6-10.5,19.7c-7.7,13.3-29.3,36.1-36.5,36.1-7.4,0-3.6-8.1-1.7-11.5C626.5,18,644.8-16,644.8-16l-20.3.1s-25.7,48.1-31,57.7c-7.3,13.4-4.6,27.1,8.2,27.1,8.3,0,24.2-13.6,37.9-28.7-2.3,4.2-4.1,7.4-5,9.2-7.3,13.3-3.5,19.5,5,19.5,5.4,0,12.3-3.1,23.4-13.6,10.3-9.7,52.5-52.2,56.1-55.9C720.4-2,720.2-13.2,717.7-10.6Z"/><path class="cls-2" d="M721.6,42.3c6.3-17.8,7.8-34.3,10.6-45.7,0,0,23.5-20.1,1.2-18.6S709.7,4.5,706.1,24.6A100.77,100.77,0,0,1,702.6,39c-16.4,4.3-31.5,7.3-33,16.1-2,11.1,9.2,13.7,17.2,13.7C699.8,68.9,712.9,64.7,721.6,42.3ZM683.8,57.9c.5-2.7,6.1-4.7,13.6-7-1.7,2.6-3.3,4.3-4.9,6.4C689.3,61.6,682.9,62.6,683.8,57.9Z"/><path class="cls-2" d="M-7.4,42.3C-1.1,24.5.4,8,3.2-3.4c0,0,23.5-20.1,1.2-18.6S-19.3,4.5-22.9,24.6A116,116,0,0,1-26.3,39c-16.4,4.3-31.5,7.3-33,16.1-2,11.1,9.2,13.7,17.2,13.7C-29.2,68.9-16.1,64.7-7.4,42.3ZM-45.2,57.9c.5-2.7,6.1-4.7,13.6-7-1.7,2.6-3.3,4.3-4.9,6.4C-39.7,61.6-46.1,62.6-45.2,57.9Z"/></pattern></defs><g id="Layer_2" data-name="Layer 2"><g id="Layer_1-2" data-name="Layer 1"><rect class="cls-3" width="1366" height="771"/></g></g></svg>