<svg xmlns="http://www.w3.org/2000/svg" width="512.867" height="512.001" viewBox="0 0 135.696 135.467"  xmlns:v="https://vecta.io/nano"><style><![CDATA[.B{font-size:10.583px}.C{font-family:Streetwear}.D{fill:#e71d36}.E{font-weight:400}]]></style><path d="M0 0h135.467v135.467H0z" fill="#001323"/><text xml:space="preserve" x="-97.05" y="171.518" transform="matrix(.707107 -.707107 .707107 .707107 -45.357 -49.137)" class="B C D"><tspan x="-97.05" y="171.518" font-weight="normal">LudmarusLudmarusLudmarus</tspan></text><text transform="matrix(.707107 -.707107 .707107 .707107 -45.357 -49.137)" y="183.236" x="-85.333" xml:space="preserve" class="B C D"><tspan y="183.236" x="-85.333" font-weight="normal">LudmarusLudmarusLudm</tspan></text><text xml:space="preserve" x="-73.851" y="194.717" transform="matrix(.707107 -.707107 .707107 .707107 -45.357 -49.137)" class="B C D"><tspan x="-73.851" y="194.717" font-weight="normal">LudmarusLudmarusLu</tspan></text><text transform="matrix(.707107 -.707107 .707107 .707107 -45.357 -49.137)" y="206.435" x="-62.134" xml:space="preserve" class="B C D"><tspan y="206.435" x="-62.134" font-weight="normal">LudmarusLudmaru</tspan></text><text xml:space="preserve" x="-50.652" y="217.916" transform="matrix(.707107 -.707107 .707107 .707107 -45.357 -49.137)" class="B C D"><tspan x="-50.652" y="217.916" font-weight="normal">LudmarusLudm</tspan></text><text transform="matrix(.707107 -.707107 .707107 .707107 -45.357 -49.137)" y="229.634" x="-38.935" xml:space="preserve" class="B C D"><tspan y="229.634" x="-38.935" font-weight="normal">Ludmarus</tspan></text><text transform="matrix(.707107 -.707107 .707107 .707107 -45.357 -49.137)" y="241.115" x="-27.453" xml:space="preserve" class="B C D"><tspan y="241.115" x="-27.453" font-weight="normal">Ludmar</tspan></text><text xml:space="preserve" x="-15.736" y="252.833" transform="matrix(.707107 -.707107 .707107 .707107 -45.357 -49.137)" class="B C D"><tspan x="-15.736" y="252.833" font-weight="normal">Lud</tspan></text><text xml:space="preserve" x="-189.846" y="78.723" transform="matrix(.707107 -.707107 .707107 .707107 -45.357 -49.137)" class="B C D"><tspan x="-189.846" y="78.723" font-weight="normal">LudmarusLudmarusLudmarus</tspan></text><text transform="matrix(.707107 -.707107 .707107 .707107 -45.357 -49.137)" y="90.44" x="-178.129" xml:space="preserve" class="B C D"><tspan y="90.44" x="-178.129" font-weight="normal">LudmarusLudmarusLudmarus</tspan></text><text transform="matrix(.707107 -.707107 .707107 .707107 -45.357 -49.137)" y="101.921" x="-166.647" xml:space="preserve" class="B C D"><tspan y="101.921" x="-166.647" font-weight="normal">LudmarusLudmarusLudmarus</tspan></text><text xml:space="preserve" x="-154.93" y="113.639" transform="matrix(.707107 -.707107 .707107 .707107 -45.357 -49.137)" class="B C D"><tspan x="-154.93" y="113.639" font-weight="normal">LudmarusLudmarusLudmarus</tspan></text><text transform="matrix(.707107 -.707107 .707107 .707107 -45.357 -49.137)" y="125.12" x="-143.448" xml:space="preserve" class="B C D"><tspan y="125.12" x="-143.448" font-weight="normal">LudmarusLudmarusLudmarus</tspan></text><text xml:space="preserve" x="-131.731" y="136.838" transform="matrix(.707107 -.707107 .707107 .707107 -45.357 -49.137)" class="B C D"><tspan x="-131.731" y="136.838" font-weight="normal">LudmarusLudmarusLudmarus</tspan></text><text xml:space="preserve" x="-120.249" y="148.319" transform="matrix(.707107 -.707107 .707107 .707107 -45.357 -49.137)" class="B C D"><tspan x="-120.249" y="148.319" font-weight="normal">LudmarusLudmarusLudmarus</tspan></text><text transform="matrix(.707107 -.707107 .707107 .707107 -45.357 -49.137)" y="160.037" x="-108.532" xml:space="preserve" class="B C D"><tspan y="160.037" x="-108.532" font-weight="normal">LudmarusLudmarusLudmarus</tspan></text></svg>