<svg xmlns="http://www.w3.org/2000/svg" xmlns:xlink="http://www.w3.org/1999/xlink" viewBox="0 0 1366 771"><defs><style>.cls-1{fill:none;}.cls-2{fill:#e71d36;}.cls-3{fill:url(#Candywrap2);}</style><pattern id="Candywrap2" data-name="Candywrap2" width="729" height="556" patternTransform="translate(31.96 233.63) rotate(-30)" patternUnits="userSpaceOnUse" viewBox="0 0 729 556"><rect class="cls-1" width="729" height="556"/><path class="cls-2" d="M790.46,584c.9-1.53,1.92-3.32,2.95-5,3.71-6.53,11.65-21.5,19.33-36.22,8.32-.9,16.64-3.59,23.29-8.45,18.69-13.7,24.71-47.24-1-47.24-16.26,0-25.73,18.31-30.34,27.14,0,0-3.33,6.4-7.93,15.1a36.85,36.85,0,0,1-20.1-13.82s-11.52,8.19-3.59,16.77c4,4.1,10.12,7.3,17.41,9.09-7.29,13.69-15.1,28.29-17.66,32.64-.9,1.66-1.79,3.2-2.69,4.61-63.11-11.27-67.2,46.08-36.48,46.08,15,0,30.21-4.61,46.72-25.86,22.66,11,36,26,54.66,26,23.3,0,27.14-25.35,27.14-25.35C844.48,609.38,816.45,594,790.46,584ZM735.8,610.66c-11.64,0-6.91-24.07,24.33-18C749,606.18,742,610.66,735.8,610.66Zm91.66-96.39c2.43-4.74,5.12-10.62,9.34-10.62,4.87,0,5,10.49-5.5,20.09a26.84,26.84,0,0,1-11.78,5.89C822.59,523.74,825.41,518.37,827.46,514.27Z"/><path class="cls-2" d="M61.46,584c.9-1.53,1.92-3.32,2.95-5,3.71-6.53,11.65-21.5,19.33-36.22,8.32-.9,16.64-3.59,23.29-8.45,18.69-13.7,24.71-47.24-1-47.24-16.26,0-25.73,18.31-30.34,27.14,0,0-3.33,6.4-7.93,15.1a36.85,36.85,0,0,1-20.1-13.82s-11.52,8.19-3.59,16.77c4,4.1,10.12,7.3,17.41,9.09-7.29,13.69-15.1,28.29-17.66,32.64-.9,1.66-1.79,3.2-2.69,4.61C-22,567.39-26.09,624.74,4.63,624.74c15,0,30.21-4.61,46.72-25.86,22.66,11,36,26,54.66,26,23.3,0,27.14-25.35,27.14-25.35C115.48,609.38,87.45,594,61.46,584ZM6.8,610.66c-11.64,0-6.91-24.07,24.33-18C20,606.18,13,610.66,6.8,610.66Zm91.66-96.39c2.43-4.74,5.12-10.62,9.34-10.62,4.87,0,5,10.49-5.5,20.09a26.84,26.84,0,0,1-11.78,5.89C93.59,523.74,96.41,518.37,98.46,514.27Z"/><path class="cls-2" d="M259.74,545.38c-4.74,5-43.53,41.85-48.39,46-3.33,2.82-6.4,5.63-7.42,4.48s2.43-8.06,4.35-11.52c5.5-10.37,23.81-44.42,23.81-44.42l-20.36.13s-4.6,8.58-10.49,19.71c-7.68,13.32-29.32,36.1-36.48,36.1-7.43,0-3.59-8.06-1.67-11.52,5.51-10.37,23.81-44.42,23.81-44.42l-20.35.13s-25.73,48.13-31,57.73c-7.3,13.44-4.61,27.14,8.19,27.14,8.32,0,24.2-13.57,37.89-28.68-2.3,4.23-4.09,7.43-5,9.22-7.3,13.31-3.46,19.46,5,19.46,5.38,0,12.29-3.07,23.43-13.57,10.24-9.73,52.48-52.23,56.06-55.94C262.42,554,262.17,542.82,259.74,545.38Z"/><path class="cls-2" d="M344.34,545.38c-4.73,5-43.39,41.85-48.38,46-3.33,2.82-6.27,5.63-7.43,4.48s2.44-8.06,4.36-11.52c5.5-10.37,45.69-85.64,45.69-85.64H318.36s-15,28-29.57,55.43c-1.54-7.55-6.91-14.21-14.21-14.21-11.26,0-27.65,9.22-45.83,36.87s-12.92,48.13,4.49,48.13c8.83,0,17.92-6.27,25.47-13.83-3.46,9.48.38,13.83,7.55,13.83,5.38,0,12.42-3.07,23.43-13.57,10.24-9.73,52.48-52.23,56.06-55.94C347,554,346.9,542.82,344.34,545.38Zm-96.9,59.26c-6.53,0-5.24-11.26,2.95-25.09s20.35-25.09,27-25.09,5.25,11.27-3.08,25.09S254.1,604.64,247.44,604.64Z"/><path class="cls-2" d="M486.55,545.38c-4.73,5-43.39,41.85-48.38,46-3.2,2.82-6.28,5.63-7.3,4.48s2.3-8.06,4.22-11.52c5.51-10.37,7.56-14.21,10.76-20.23,9.73-18.56,1.79-24.19-8.07-24.19-6.14,0-24.7,5.51-50.43,39.17,3.45-6.65,5.25-10.11,7.93-15,10.25-17.79,1.92-24.19-8.06-24.19-6,0-24.58,5.51-50.31,39.17l20.87-39H337.55L292,624.87h20.23l.25-.39-.25.39c16.64-30.72,50.82-62.73,58.24-62.73,4.35,0,2.69,5.51-2.56,15.37-6.27,11.9-25.09,47.36-25.09,47.36H363s1.15-2.18,2.94-5.51c17.41-28.93,48-57.22,54.92-57.22,4.35,0,2.81,5.64-2.56,15.49-5.76,10.76-9.6,18.18-14.85,27.78-7.3,13.31-3.46,19.46,5,19.46,5.25,0,12.42-3.07,23.42-13.57,10.37-9.73,52.49-52.23,56.07-55.94C489.24,554,489.11,542.82,486.55,545.38Z"/><path class="cls-2" d="M571.29,545.38c-4.74,5-43.4,41.85-48.39,46-3.33,2.82-6.27,5.63-7.43,4.48s2.44-8.06,4.36-11.52c5.5-10.37,23.81-44.42,23.81-44.42l-20.36.13s-3.07,5.89-7.55,14.21c-1.53-7.55-6.91-14.34-14.21-14.34-11.26,0-27.65,9.22-45.82,36.87s-12.93,48.13,4.48,48.13c8.83,0,17.92-6.27,25.47-13.83-3.46,9.48.38,13.83,7.55,13.83,5.38,0,12.42-3.07,23.43-13.57,10.24-9.73,52.48-52.23,56.06-55.94C574,554,573.85,542.82,571.29,545.38Zm-96.91,59.26c-6.52,0-5.24-11.26,2.95-25.09s20.35-25.09,27-25.09,5.25,11.27-3.07,25.09S481,604.64,474.38,604.64Z"/><path class="cls-2" d="M631.83,545.38c-4.74,5-43.4,41.85-48.39,46-3.2,2.82-6.27,5.63-7.3,4.48s2.31-8.06,4.23-11.52c5.5-10.37,6.4-11,9.6-17.15,8.57-16.39-4.1-9.86-14-15.49a10,10,0,0,1-2.82-2.31c7.68-8.32,13.82-16.89,7-21.24-6.27-4.1-17.41-5.89-24.83,3.32-9.35,11.78.64,23,7.55,26.63,3.07,1.53,10.88,2.43,4.35,13.31-6.27,10.5-13.31,24.45-18.56,34-7.17,13.31-3.46,19.46,5,19.46,5.25,0,12.42-3.07,23.43-13.57,10.37-9.73,52.48-52.23,56.07-55.94C634.51,554,634.39,542.82,631.83,545.38Z"/><path class="cls-2" d="M717.71,545.38c-4.73,5-43.52,41.85-48.38,46-3.33,2.82-6.4,5.63-7.43,4.48s2.44-8.06,4.36-11.52c5.5-10.37,23.81-44.42,23.81-44.42l-20.36.13s-4.61,8.58-10.49,19.71c-7.68,13.32-29.32,36.1-36.49,36.1-7.42,0-3.58-8.06-1.66-11.52,5.5-10.37,23.81-44.42,23.81-44.42l-20.35.13s-25.73,48.13-31,57.73c-7.3,13.44-4.61,27.14,8.19,27.14,8.32,0,24.19-13.57,37.89-28.68-2.3,4.23-4.1,7.43-5,9.22-7.3,13.31-3.46,19.46,5,19.46,5.38,0,12.29-3.07,23.43-13.57,10.24-9.73,52.48-52.23,56.06-55.94C720.4,554,720.15,542.82,717.71,545.38Z"/><path class="cls-2" d="M721.55,598.24c6.27-17.79,7.81-34.3,10.63-45.7,0,0,23.55-20.09,1.15-18.56s-23.68,26.5-27.27,46.6A115.75,115.75,0,0,1,702.61,595c-16.39,4.35-31.49,7.3-33,16.13-2.05,11.14,9.22,13.7,17.15,13.7C699.79,624.87,712.85,620.64,721.55,598.24Zm-37.76,15.62c.51-2.69,6.14-4.74,13.57-7-1.67,2.56-3.33,4.35-4.87,6.4C689.29,617.57,682.89,618.6,683.79,613.86Z"/><path class="cls-2" d="M-7.45,598.24c6.27-17.79,7.81-34.3,10.63-45.7,0,0,23.55-20.09,1.15-18.56s-23.68,26.5-27.27,46.6A115.75,115.75,0,0,1-26.39,595c-16.39,4.35-31.49,7.3-33,16.13-2,11.14,9.22,13.7,17.15,13.7C-29.21,624.87-16.15,620.64-7.45,598.24Zm-37.76,15.62c.51-2.69,6.14-4.74,13.57-7-1.67,2.56-3.33,4.35-4.87,6.4C-39.71,617.57-46.11,618.6-45.21,613.86Z"/><path class="cls-2" d="M426,445c.9-1.53,1.92-3.32,3-5,3.71-6.53,11.65-21.5,19.33-36.22,8.32-.9,16.64-3.59,23.29-8.45,18.69-13.7,24.71-47.24-1-47.24-16.26,0-25.73,18.31-30.34,27.14,0,0-3.33,6.4-7.93,15.1a36.85,36.85,0,0,1-20.1-13.82s-11.52,8.19-3.59,16.77c4,4.1,10.12,7.3,17.41,9.09-7.29,13.69-15.1,28.29-17.66,32.64-.9,1.66-1.79,3.2-2.69,4.61-63.11-11.27-67.2,46.08-36.48,46.08,15,0,30.21-4.61,46.72-25.86,22.66,11,36,26,54.66,26,23.3,0,27.14-25.35,27.14-25.35C480,470.38,452,455,426,445ZM371.3,471.66c-11.64,0-6.91-24.07,24.33-18.05C384.49,467.18,377.45,471.66,371.3,471.66ZM463,375.27c2.43-4.74,5.12-10.62,9.34-10.62,4.87,0,5,10.49-5.5,20.09A26.84,26.84,0,0,1,455,390.63C458.09,384.74,460.91,379.37,463,375.27Z"/><path class="cls-2" d="M624.24,406.38c-4.74,5-43.53,41.85-48.39,45.95-3.33,2.82-6.4,5.63-7.42,4.48s2.43-8.06,4.35-11.52c5.5-10.37,23.81-44.42,23.81-44.42l-20.36.13s-4.6,8.58-10.49,19.71c-7.68,13.32-29.32,36.1-36.48,36.1-7.43,0-3.59-8.06-1.67-11.52,5.51-10.37,23.81-44.42,23.81-44.42l-20.35.13s-25.73,48.13-31,57.73c-7.3,13.44-4.61,27.14,8.19,27.14,8.32,0,24.2-13.57,37.89-28.68-2.3,4.23-4.09,7.43-5,9.22-7.3,13.31-3.46,19.46,5,19.46,5.38,0,12.29-3.07,23.43-13.57,10.24-9.73,52.48-52.23,56.06-55.94C626.92,415,626.67,403.82,624.24,406.38Z"/><path class="cls-2" d="M708.84,406.38c-4.73,5-43.39,41.85-48.38,45.95-3.33,2.82-6.27,5.63-7.43,4.48s2.44-8.06,4.36-11.52c5.5-10.37,45.69-85.64,45.69-85.64H682.86s-15,28-29.57,55.43c-1.54-7.55-6.91-14.21-14.21-14.21-11.26,0-27.65,9.22-45.83,36.87s-12.92,48.13,4.49,48.13c8.83,0,17.92-6.27,25.47-13.83-3.46,9.48.38,13.83,7.55,13.83,5.38,0,12.42-3.07,23.43-13.57,10.24-9.73,52.48-52.23,56.06-55.94C711.53,415,711.4,403.82,708.84,406.38Zm-96.9,59.26c-6.53,0-5.24-11.26,2.95-25.09s20.35-25.09,27-25.09,5.25,11.27-3.08,25.09S618.6,465.64,611.94,465.64Z"/><path class="cls-2" d="M851.05,406.38c-4.73,5-43.39,41.85-48.38,45.95-3.2,2.82-6.28,5.63-7.3,4.48s2.3-8.06,4.22-11.52c5.51-10.37,7.56-14.21,10.76-20.23,9.73-18.56,1.79-24.19-8.07-24.19-6.14,0-24.7,5.51-50.43,39.17,3.45-6.65,5.25-10.11,7.93-15,10.25-17.79,1.92-24.19-8.06-24.19-6,0-24.58,5.51-50.31,39.17l20.87-39H702.05l-45.57,84.87h20.23l.25-.39-.25.39c16.64-30.72,50.82-62.73,58.24-62.73,4.35,0,2.69,5.51-2.56,15.37-6.27,11.9-25.09,47.36-25.09,47.36h20.23s1.15-2.18,2.94-5.51c17.41-28.93,48-57.22,54.92-57.22,4.35,0,2.81,5.64-2.56,15.49-5.76,10.76-9.6,18.18-14.85,27.78-7.3,13.31-3.46,19.46,5,19.46,5.25,0,12.42-3.07,23.42-13.57,10.37-9.73,52.49-52.23,56.07-55.94C853.74,415,853.61,403.82,851.05,406.38Z"/><path class="cls-2" d="M122.05,406.38c-4.73,5-43.39,41.85-48.38,45.95-3.2,2.82-6.28,5.63-7.3,4.48s2.3-8.06,4.22-11.52c5.51-10.37,7.56-14.21,10.76-20.23,9.73-18.56,1.79-24.19-8.07-24.19-6.14,0-24.7,5.51-50.43,39.17,3.45-6.65,5.25-10.11,7.93-15,10.25-17.79,1.92-24.19-8.06-24.19-6,0-24.58,5.51-50.31,39.17l20.87-39H-26.95l-45.57,84.87h20.23l.25-.39-.25.39C-35.65,455.15-1.47,423.14,6,423.14c4.35,0,2.69,5.51-2.56,15.37-6.27,11.9-25.09,47.36-25.09,47.36H-1.47s1.15-2.18,2.94-5.51c17.41-28.93,48-57.22,54.92-57.22,4.35,0,2.81,5.64-2.56,15.49-5.76,10.76-9.6,18.18-14.85,27.78-7.3,13.31-3.46,19.46,5,19.46,5.25,0,12.42-3.07,23.42-13.57,10.37-9.73,52.49-52.23,56.07-55.94C124.74,415,124.61,403.82,122.05,406.38Z"/><path class="cls-2" d="M206.79,406.38c-4.74,5-43.4,41.85-48.39,45.95-3.33,2.82-6.27,5.63-7.43,4.48s2.44-8.06,4.36-11.52c5.5-10.37,23.81-44.42,23.81-44.42l-20.36.13s-3.07,5.89-7.55,14.21c-1.53-7.55-6.91-14.34-14.21-14.34-11.26,0-27.65,9.22-45.82,36.87s-12.93,48.13,4.48,48.13c8.83,0,17.92-6.27,25.47-13.83-3.46,9.48.38,13.83,7.55,13.83,5.38,0,12.42-3.07,23.43-13.57,10.24-9.73,52.48-52.23,56.06-55.94C209.47,415,209.35,403.82,206.79,406.38Zm-96.91,59.26c-6.52,0-5.24-11.26,3-25.09s20.35-25.09,27-25.09,5.25,11.27-3.07,25.09S116.54,465.64,109.88,465.64Z"/><path class="cls-2" d="M267.33,406.38c-4.74,5-43.4,41.85-48.39,45.95-3.2,2.82-6.27,5.63-7.3,4.48s2.31-8.06,4.23-11.52c5.5-10.37,6.4-11,9.6-17.15,8.57-16.39-4.1-9.86-13.95-15.49a10,10,0,0,1-2.82-2.31c7.68-8.32,13.82-16.89,7-21.24-6.27-4.1-17.41-5.89-24.83,3.32-9.35,11.78.64,23,7.55,26.63,3.07,1.53,10.88,2.43,4.35,13.31-6.27,10.5-13.31,24.45-18.56,34.05-7.17,13.31-3.46,19.46,5,19.46,5.25,0,12.42-3.07,23.43-13.57,10.37-9.73,52.48-52.23,56.07-55.94C270,415,269.89,403.82,267.33,406.38Z"/><path class="cls-2" d="M353.21,406.38c-4.73,5-43.52,41.85-48.38,45.95-3.33,2.82-6.4,5.63-7.43,4.48s2.44-8.06,4.36-11.52c5.5-10.37,23.81-44.42,23.81-44.42l-20.36.13s-4.61,8.58-10.49,19.71c-7.68,13.32-29.32,36.1-36.49,36.1-7.42,0-3.58-8.06-1.66-11.52,5.5-10.37,23.81-44.42,23.81-44.42L260,401s-25.73,48.13-31,57.73c-7.3,13.44-4.61,27.14,8.19,27.14,8.32,0,24.19-13.57,37.89-28.68-2.3,4.23-4.1,7.43-5,9.22-7.3,13.31-3.46,19.46,5,19.46,5.38,0,12.29-3.07,23.43-13.57,10.24-9.73,52.48-52.23,56.06-55.94C355.9,415,355.65,403.82,353.21,406.38Z"/><path class="cls-2" d="M357.05,459.24c6.27-17.79,7.81-34.3,10.63-45.7,0,0,23.55-20.09,1.15-18.56s-23.68,26.5-27.27,46.6A115.75,115.75,0,0,1,338.11,456c-16.39,4.35-31.49,7.3-33,16.13-2.05,11.14,9.22,13.7,17.15,13.7C335.29,485.87,348.35,481.64,357.05,459.24Zm-37.76,15.62c.51-2.69,6.14-4.74,13.57-7-1.67,2.56-3.33,4.35-4.87,6.4C324.79,478.57,318.39,479.6,319.29,474.86Z"/><path class="cls-2" d="M790.46,306c.9-1.53,1.92-3.32,2.95-5,3.71-6.53,11.65-21.5,19.33-36.22,8.32-.9,16.64-3.59,23.29-8.45,18.69-13.7,24.71-47.24-1-47.24-16.26,0-25.73,18.31-30.34,27.14,0,0-3.33,6.4-7.93,15.1a36.85,36.85,0,0,1-20.1-13.82s-11.52,8.19-3.59,16.77c4,4.1,10.12,7.3,17.41,9.09-7.29,13.69-15.1,28.29-17.66,32.64-.9,1.66-1.79,3.2-2.69,4.61-63.11-11.27-67.2,46.08-36.48,46.08,15,0,30.21-4.61,46.72-25.86,22.66,11,36,26,54.66,26,23.3,0,27.14-25.35,27.14-25.35C844.48,331.38,816.45,316,790.46,306ZM735.8,332.66c-11.64,0-6.91-24.07,24.33-18.05C749,328.18,742,332.66,735.8,332.66Zm91.66-96.39c2.43-4.74,5.12-10.62,9.34-10.62,4.87,0,5,10.49-5.5,20.09a26.84,26.84,0,0,1-11.78,5.89C822.59,245.74,825.41,240.37,827.46,236.27Z"/><path class="cls-2" d="M61.46,306c.9-1.53,1.92-3.32,2.95-5,3.71-6.53,11.65-21.5,19.33-36.22,8.32-.9,16.64-3.59,23.29-8.45,18.69-13.7,24.71-47.24-1-47.24-16.26,0-25.73,18.31-30.34,27.14,0,0-3.33,6.4-7.93,15.1a36.85,36.85,0,0,1-20.1-13.82s-11.52,8.19-3.59,16.77c4,4.1,10.12,7.3,17.41,9.09-7.29,13.69-15.1,28.29-17.66,32.64-.9,1.66-1.79,3.2-2.69,4.61C-22,289.39-26.09,346.74,4.63,346.74c15,0,30.21-4.61,46.72-25.86,22.66,11,36,26,54.66,26,23.3,0,27.14-25.35,27.14-25.35C115.48,331.38,87.45,316,61.46,306ZM6.8,332.66c-11.64,0-6.91-24.07,24.33-18.05C20,328.18,13,332.66,6.8,332.66Zm91.66-96.39c2.43-4.74,5.12-10.62,9.34-10.62,4.87,0,5,10.49-5.5,20.09a26.84,26.84,0,0,1-11.78,5.89C93.59,245.74,96.41,240.37,98.46,236.27Z"/><path class="cls-2" d="M259.74,267.38c-4.74,5-43.53,41.85-48.39,45.95-3.33,2.82-6.4,5.63-7.42,4.48s2.43-8.06,4.35-11.52c5.5-10.37,23.81-44.42,23.81-44.42l-20.36.13s-4.6,8.58-10.49,19.71c-7.68,13.32-29.32,36.1-36.48,36.1-7.43,0-3.59-8.06-1.67-11.52,5.51-10.37,23.81-44.42,23.81-44.42l-20.35.13s-25.73,48.13-31,57.73c-7.3,13.44-4.61,27.14,8.19,27.14,8.32,0,24.2-13.57,37.89-28.68-2.3,4.23-4.09,7.43-5,9.22-7.3,13.31-3.46,19.46,5,19.46,5.38,0,12.29-3.07,23.43-13.57,10.24-9.73,52.48-52.23,56.06-55.94C262.42,276,262.17,264.82,259.74,267.38Z"/><path class="cls-2" d="M344.34,267.38c-4.73,5-43.39,41.85-48.38,45.95-3.33,2.82-6.27,5.63-7.43,4.48s2.44-8.06,4.36-11.52c5.5-10.37,45.69-85.64,45.69-85.64H318.36s-15,28-29.57,55.43c-1.54-7.55-6.91-14.21-14.21-14.21-11.26,0-27.65,9.22-45.83,36.87s-12.92,48.13,4.49,48.13c8.83,0,17.92-6.27,25.47-13.83-3.46,9.48.38,13.83,7.55,13.83,5.38,0,12.42-3.07,23.43-13.57,10.24-9.73,52.48-52.23,56.06-55.94C347,276,346.9,264.82,344.34,267.38Zm-96.9,59.26c-6.53,0-5.24-11.26,2.95-25.09s20.35-25.09,27-25.09,5.25,11.27-3.08,25.09S254.1,326.64,247.44,326.64Z"/><path class="cls-2" d="M486.55,267.38c-4.73,5-43.39,41.85-48.38,45.95-3.2,2.82-6.28,5.63-7.3,4.48s2.3-8.06,4.22-11.52c5.51-10.37,7.56-14.21,10.76-20.23,9.73-18.56,1.79-24.19-8.07-24.19-6.14,0-24.7,5.51-50.43,39.17,3.45-6.65,5.25-10.11,7.93-15,10.25-17.79,1.92-24.19-8.06-24.19-6,0-24.58,5.51-50.31,39.17l20.87-39H337.55L292,346.87h20.23l.25-.39-.25.39c16.64-30.72,50.82-62.73,58.24-62.73,4.35,0,2.69,5.51-2.56,15.37-6.27,11.9-25.09,47.36-25.09,47.36H363s1.15-2.18,2.94-5.51c17.41-28.93,48-57.22,54.92-57.22,4.35,0,2.81,5.64-2.56,15.49-5.76,10.76-9.6,18.18-14.85,27.78-7.3,13.31-3.46,19.46,5,19.46,5.25,0,12.42-3.07,23.42-13.57,10.37-9.73,52.49-52.23,56.07-55.94C489.24,276,489.11,264.82,486.55,267.38Z"/><path class="cls-2" d="M571.29,267.38c-4.74,5-43.4,41.85-48.39,45.95-3.33,2.82-6.27,5.63-7.43,4.48s2.44-8.06,4.36-11.52c5.5-10.37,23.81-44.42,23.81-44.42l-20.36.13s-3.07,5.89-7.55,14.21c-1.53-7.55-6.91-14.34-14.21-14.34-11.26,0-27.65,9.22-45.82,36.87s-12.93,48.13,4.48,48.13c8.83,0,17.92-6.27,25.47-13.83-3.46,9.48.38,13.83,7.55,13.83,5.38,0,12.42-3.07,23.43-13.57,10.24-9.73,52.48-52.23,56.06-55.94C574,276,573.85,264.82,571.29,267.38Zm-96.91,59.26c-6.52,0-5.24-11.26,2.95-25.09s20.35-25.09,27-25.09,5.25,11.27-3.07,25.09S481,326.64,474.38,326.64Z"/><path class="cls-2" d="M631.83,267.38c-4.74,5-43.4,41.85-48.39,45.95-3.2,2.82-6.27,5.63-7.3,4.48s2.31-8.06,4.23-11.52c5.5-10.37,6.4-11,9.6-17.15,8.57-16.39-4.1-9.86-14-15.49a10,10,0,0,1-2.82-2.31c7.68-8.32,13.82-16.89,7-21.24-6.27-4.1-17.41-5.89-24.83,3.32-9.35,11.78.64,23,7.55,26.63,3.07,1.53,10.88,2.43,4.35,13.31-6.27,10.5-13.31,24.45-18.56,34.05-7.17,13.31-3.46,19.46,5,19.46,5.25,0,12.42-3.07,23.43-13.57,10.37-9.73,52.48-52.23,56.07-55.94C634.51,276,634.39,264.82,631.83,267.38Z"/><path class="cls-2" d="M717.71,267.38c-4.73,5-43.52,41.85-48.38,45.95-3.33,2.82-6.4,5.63-7.43,4.48s2.44-8.06,4.36-11.52c5.5-10.37,23.81-44.42,23.81-44.42l-20.36.13s-4.61,8.58-10.49,19.71c-7.68,13.32-29.32,36.1-36.49,36.1-7.42,0-3.58-8.06-1.66-11.52,5.5-10.37,23.81-44.42,23.81-44.42l-20.35.13s-25.73,48.13-31,57.73c-7.3,13.44-4.61,27.14,8.19,27.14,8.32,0,24.19-13.57,37.89-28.68-2.3,4.23-4.1,7.43-5,9.22-7.3,13.31-3.46,19.46,5,19.46,5.38,0,12.29-3.07,23.43-13.57,10.24-9.73,52.48-52.23,56.06-55.94C720.4,276,720.15,264.82,717.71,267.38Z"/><path class="cls-2" d="M721.55,320.24c6.27-17.79,7.81-34.3,10.63-45.7,0,0,23.55-20.09,1.15-18.56s-23.68,26.5-27.27,46.6A115.75,115.75,0,0,1,702.61,317c-16.39,4.35-31.49,7.3-33,16.13-2.05,11.14,9.22,13.7,17.15,13.7C699.79,346.87,712.85,342.64,721.55,320.24Zm-37.76,15.62c.51-2.69,6.14-4.74,13.57-7-1.67,2.56-3.33,4.35-4.87,6.4C689.29,339.57,682.89,340.6,683.79,335.86Z"/><path class="cls-2" d="M-7.45,320.24c6.27-17.79,7.81-34.3,10.63-45.7,0,0,23.55-20.09,1.15-18.56s-23.68,26.5-27.27,46.6A115.75,115.75,0,0,1-26.39,317c-16.39,4.35-31.49,7.3-33,16.13-2,11.14,9.22,13.7,17.15,13.7C-29.21,346.87-16.15,342.64-7.45,320.24Zm-37.76,15.62c.51-2.69,6.14-4.74,13.57-7-1.67,2.56-3.33,4.35-4.87,6.4C-39.71,339.57-46.11,340.6-45.21,335.86Z"/><path class="cls-2" d="M426,167c.9-1.53,1.92-3.32,3-5,3.71-6.53,11.65-21.5,19.33-36.22,8.32-.9,16.64-3.59,23.29-8.45,18.69-13.7,24.71-47.24-1-47.24-16.26,0-25.73,18.31-30.34,27.14,0,0-3.33,6.4-7.93,15.1a36.85,36.85,0,0,1-20.1-13.82s-11.52,8.19-3.59,16.77c4,4.1,10.12,7.3,17.41,9.09-7.29,13.69-15.1,28.29-17.66,32.64-.9,1.66-1.79,3.2-2.69,4.61-63.11-11.27-67.2,46.08-36.48,46.08,15,0,30.21-4.61,46.72-25.86,22.66,11,36,26,54.66,26,23.3,0,27.14-25.35,27.14-25.35C480,192.38,452,177,426,167ZM371.3,193.66c-11.64,0-6.91-24.07,24.33-18C384.49,189.18,377.45,193.66,371.3,193.66ZM463,97.27c2.43-4.74,5.12-10.62,9.34-10.62,4.87,0,5,10.49-5.5,20.09A26.84,26.84,0,0,1,455,112.63C458.09,106.74,460.91,101.37,463,97.27Z"/><path class="cls-2" d="M624.24,128.38c-4.74,5-43.53,41.85-48.39,46-3.33,2.82-6.4,5.63-7.42,4.48s2.43-8.06,4.35-11.52c5.5-10.37,23.81-44.42,23.81-44.42l-20.36.13s-4.6,8.58-10.49,19.71c-7.68,13.32-29.32,36.1-36.48,36.1-7.43,0-3.59-8.06-1.67-11.52,5.51-10.37,23.81-44.42,23.81-44.42l-20.35.13s-25.73,48.13-31,57.73c-7.3,13.44-4.61,27.14,8.19,27.14,8.32,0,24.2-13.57,37.89-28.68-2.3,4.23-4.09,7.43-5,9.22-7.3,13.31-3.46,19.46,5,19.46,5.38,0,12.29-3.07,23.43-13.57,10.24-9.73,52.48-52.23,56.06-55.94C626.92,137,626.67,125.82,624.24,128.38Z"/><path class="cls-2" d="M708.84,128.38c-4.73,5-43.39,41.85-48.38,46-3.33,2.82-6.27,5.63-7.43,4.48s2.44-8.06,4.36-11.52c5.5-10.37,45.69-85.64,45.69-85.64H682.86s-15,28-29.57,55.43c-1.54-7.55-6.91-14.21-14.21-14.21-11.26,0-27.65,9.22-45.83,36.87s-12.92,48.13,4.49,48.13c8.83,0,17.92-6.27,25.47-13.83-3.46,9.48.38,13.83,7.55,13.83,5.38,0,12.42-3.07,23.43-13.57,10.24-9.73,52.48-52.23,56.06-55.94C711.53,137,711.4,125.82,708.84,128.38Zm-96.9,59.26c-6.53,0-5.24-11.26,2.95-25.09s20.35-25.09,27-25.09,5.25,11.27-3.08,25.09S618.6,187.64,611.94,187.64Z"/><path class="cls-2" d="M851.05,128.38c-4.73,5-43.39,41.85-48.38,46-3.2,2.82-6.28,5.63-7.3,4.48s2.3-8.06,4.22-11.52c5.51-10.37,7.56-14.21,10.76-20.23,9.73-18.56,1.79-24.19-8.07-24.19-6.14,0-24.7,5.51-50.43,39.17,3.45-6.65,5.25-10.11,7.93-15,10.25-17.79,1.92-24.19-8.06-24.19-6,0-24.58,5.51-50.31,39.17l20.87-39H702.05l-45.57,84.87h20.23l.25-.39-.25.39c16.64-30.72,50.82-62.73,58.24-62.73,4.35,0,2.69,5.51-2.56,15.37-6.27,11.9-25.09,47.36-25.09,47.36h20.23s1.15-2.18,2.94-5.51c17.41-28.93,48-57.22,54.92-57.22,4.35,0,2.81,5.64-2.56,15.49-5.76,10.76-9.6,18.18-14.85,27.78-7.3,13.31-3.46,19.46,5,19.46,5.25,0,12.42-3.07,23.42-13.57,10.37-9.73,52.49-52.23,56.07-55.94C853.74,137,853.61,125.82,851.05,128.38Z"/><path class="cls-2" d="M122.05,128.38c-4.73,5-43.39,41.85-48.38,46-3.2,2.82-6.28,5.63-7.3,4.48s2.3-8.06,4.22-11.52c5.51-10.37,7.56-14.21,10.76-20.23,9.73-18.56,1.79-24.19-8.07-24.19-6.14,0-24.7,5.51-50.43,39.17,3.45-6.65,5.25-10.11,7.93-15,10.25-17.79,1.92-24.19-8.06-24.19-6,0-24.58,5.51-50.31,39.17l20.87-39H-26.95l-45.57,84.87h20.23l.25-.39-.25.39C-35.65,177.15-1.47,145.14,6,145.14c4.35,0,2.69,5.51-2.56,15.37-6.27,11.9-25.09,47.36-25.09,47.36H-1.47s1.15-2.18,2.94-5.51c17.41-28.93,48-57.22,54.92-57.22,4.35,0,2.81,5.64-2.56,15.49-5.76,10.76-9.6,18.18-14.85,27.78-7.3,13.31-3.46,19.46,5,19.46,5.25,0,12.42-3.07,23.42-13.57,10.37-9.73,52.49-52.23,56.07-55.94C124.74,137,124.61,125.82,122.05,128.38Z"/><path class="cls-2" d="M206.79,128.38c-4.74,5-43.4,41.85-48.39,46-3.33,2.82-6.27,5.63-7.43,4.48s2.44-8.06,4.36-11.52c5.5-10.37,23.81-44.42,23.81-44.42l-20.36.13s-3.07,5.89-7.55,14.21c-1.53-7.55-6.91-14.34-14.21-14.34-11.26,0-27.65,9.22-45.82,36.87s-12.93,48.13,4.48,48.13c8.83,0,17.92-6.27,25.47-13.83-3.46,9.48.38,13.83,7.55,13.83,5.38,0,12.42-3.07,23.43-13.57,10.24-9.73,52.48-52.23,56.06-55.94C209.47,137,209.35,125.82,206.79,128.38Zm-96.91,59.26c-6.52,0-5.24-11.26,3-25.09s20.35-25.09,27-25.09,5.25,11.27-3.07,25.09S116.54,187.64,109.88,187.64Z"/><path class="cls-2" d="M267.33,128.38c-4.74,5-43.4,41.85-48.39,46-3.2,2.82-6.27,5.63-7.3,4.48s2.31-8.06,4.23-11.52c5.5-10.37,6.4-11,9.6-17.15,8.57-16.39-4.1-9.86-13.95-15.49a10,10,0,0,1-2.82-2.31c7.68-8.32,13.82-16.89,7-21.24-6.27-4.1-17.41-5.89-24.83,3.32-9.35,11.78.64,23,7.55,26.63,3.07,1.53,10.88,2.43,4.35,13.31-6.27,10.5-13.31,24.45-18.56,34-7.17,13.31-3.46,19.46,5,19.46,5.25,0,12.42-3.07,23.43-13.57,10.37-9.73,52.48-52.23,56.07-55.94C270,137,269.89,125.82,267.33,128.38Z"/><path class="cls-2" d="M353.21,128.38c-4.73,5-43.52,41.85-48.38,46-3.33,2.82-6.4,5.63-7.43,4.48s2.44-8.06,4.36-11.52c5.5-10.37,23.81-44.42,23.81-44.42l-20.36.13s-4.61,8.58-10.49,19.71c-7.68,13.32-29.32,36.1-36.49,36.1-7.42,0-3.58-8.06-1.66-11.52,5.5-10.37,23.81-44.42,23.81-44.42L260,123s-25.73,48.13-31,57.73c-7.3,13.44-4.61,27.14,8.19,27.14,8.32,0,24.19-13.57,37.89-28.68-2.3,4.23-4.1,7.43-5,9.22-7.3,13.31-3.46,19.46,5,19.46,5.38,0,12.29-3.07,23.43-13.57,10.24-9.73,52.48-52.23,56.06-55.94C355.9,137,355.65,125.82,353.21,128.38Z"/><path class="cls-2" d="M357.05,181.24c6.27-17.79,7.81-34.3,10.63-45.7,0,0,23.55-20.09,1.15-18.56s-23.68,26.5-27.27,46.6A115.75,115.75,0,0,1,338.11,178c-16.39,4.35-31.49,7.3-33,16.13-2.05,11.14,9.22,13.7,17.15,13.7C335.29,207.87,348.35,203.64,357.05,181.24Zm-37.76,15.62c.51-2.69,6.14-4.74,13.57-7-1.67,2.56-3.33,4.35-4.87,6.4C324.79,200.57,318.39,201.6,319.29,196.86Z"/><path class="cls-2" d="M790.46,28c.9-1.53,1.92-3.32,2.95-5,3.71-6.53,11.65-21.5,19.33-36.22,8.32-.9,16.64-3.59,23.29-8.45,18.69-13.7,24.71-47.24-1-47.24-16.26,0-25.73,18.31-30.34,27.14,0,0-3.33,6.4-7.93,15.1a36.85,36.85,0,0,1-20.1-13.82s-11.52,8.19-3.59,16.77c4,4.1,10.12,7.3,17.41,9.09C783.17-.9,775.36,13.7,772.8,18.05c-.9,1.66-1.79,3.2-2.69,4.61C707,11.39,702.91,68.74,733.63,68.74c15,0,30.21-4.61,46.72-25.86,22.66,11,36,26,54.66,26,23.3,0,27.14-25.35,27.14-25.35C844.48,53.38,816.45,38,790.46,28ZM735.8,54.66c-11.64,0-6.91-24.07,24.33-18C749,50.18,742,54.66,735.8,54.66Zm91.66-96.39c2.43-4.74,5.12-10.62,9.34-10.62,4.87,0,5,10.49-5.5,20.09a26.84,26.84,0,0,1-11.78,5.89C822.59-32.26,825.41-37.63,827.46-41.73Z"/><path class="cls-2" d="M61.46,28c.9-1.53,1.92-3.32,2.95-5,3.71-6.53,11.65-21.5,19.33-36.22,8.32-.9,16.64-3.59,23.29-8.45,18.69-13.7,24.71-47.24-1-47.24-16.26,0-25.73,18.31-30.34,27.14,0,0-3.33,6.4-7.93,15.1a36.85,36.85,0,0,1-20.1-13.82s-11.52,8.19-3.59,16.77c4,4.1,10.12,7.3,17.41,9.09C54.17-.9,46.36,13.7,43.8,18.05c-.9,1.66-1.79,3.2-2.69,4.61C-22,11.39-26.09,68.74,4.63,68.74c15,0,30.21-4.61,46.72-25.86,22.66,11,36,26,54.66,26,23.3,0,27.14-25.35,27.14-25.35C115.48,53.38,87.45,38,61.46,28ZM6.8,54.66c-11.64,0-6.91-24.07,24.33-18C20,50.18,13,54.66,6.8,54.66ZM98.46-41.73c2.43-4.74,5.12-10.62,9.34-10.62,4.87,0,5,10.49-5.5,20.09a26.84,26.84,0,0,1-11.78,5.89C93.59-32.26,96.41-37.63,98.46-41.73Z"/><path class="cls-2" d="M259.74-10.62c-4.74,5-43.53,41.85-48.39,45.95C208,38.15,205,41,203.93,39.81s2.43-8.06,4.35-11.52c5.5-10.37,23.81-44.42,23.81-44.42L211.73-16s-4.6,8.58-10.49,19.71c-7.68,13.32-29.32,36.1-36.48,36.1-7.43,0-3.59-8.06-1.67-11.52,5.51-10.37,23.81-44.42,23.81-44.42L166.55-16s-25.73,48.13-31,57.73c-7.3,13.44-4.61,27.14,8.19,27.14,8.32,0,24.2-13.57,37.89-28.68-2.3,4.23-4.09,7.43-5,9.22-7.3,13.31-3.46,19.46,5,19.46,5.38,0,12.29-3.07,23.43-13.57,10.24-9.73,52.48-52.23,56.06-55.94C262.42-2,262.17-13.18,259.74-10.62Z"/><path class="cls-2" d="M344.34-10.62C339.61-5.63,301,31.23,296,35.33c-3.33,2.82-6.27,5.63-7.43,4.48s2.44-8.06,4.36-11.52c5.5-10.37,45.69-85.64,45.69-85.64H318.36s-15,28-29.57,55.43c-1.54-7.55-6.91-14.21-14.21-14.21-11.26,0-27.65,9.22-45.83,36.87s-12.92,48.13,4.49,48.13c8.83,0,17.92-6.27,25.47-13.83-3.46,9.48.38,13.83,7.55,13.83,5.38,0,12.42-3.07,23.43-13.57,10.24-9.73,52.48-52.23,56.06-55.94C347-2,346.9-13.18,344.34-10.62Zm-96.9,59.26c-6.53,0-5.24-11.26,2.95-25.09s20.35-25.09,27-25.09,5.25,11.27-3.08,25.09S254.1,48.64,247.44,48.64Z"/><path class="cls-2" d="M486.55-10.62c-4.73,5-43.39,41.85-48.38,45.95-3.2,2.82-6.28,5.63-7.3,4.48s2.3-8.06,4.22-11.52c5.51-10.37,7.56-14.21,10.76-20.23,9.73-18.56,1.79-24.19-8.07-24.19-6.14,0-24.7,5.51-50.43,39.17,3.45-6.65,5.25-10.11,7.93-15,10.25-17.79,1.92-24.19-8.06-24.19-6,0-24.58,5.51-50.31,39.17l20.87-39H337.55L292,68.87h20.23l.25-.39-.25.39C328.85,38.15,363,6.14,370.45,6.14c4.35,0,2.69,5.51-2.56,15.37-6.27,11.9-25.09,47.36-25.09,47.36H363s1.15-2.18,2.94-5.51c17.41-28.93,48-57.22,54.92-57.22,4.35,0,2.81,5.64-2.56,15.49-5.76,10.76-9.6,18.18-14.85,27.78-7.3,13.31-3.46,19.46,5,19.46,5.25,0,12.42-3.07,23.42-13.57C442.26,45.57,484.38,3.07,488-.64,489.24-2,489.11-13.18,486.55-10.62Z"/><path class="cls-2" d="M571.29-10.62c-4.74,5-43.4,41.85-48.39,45.95-3.33,2.82-6.27,5.63-7.43,4.48s2.44-8.06,4.36-11.52c5.5-10.37,23.81-44.42,23.81-44.42L523.28-16s-3.07,5.89-7.55,14.21c-1.53-7.55-6.91-14.34-14.21-14.34-11.26,0-27.65,9.22-45.82,36.87s-12.93,48.13,4.48,48.13c8.83,0,17.92-6.27,25.47-13.83-3.46,9.48.38,13.83,7.55,13.83,5.38,0,12.42-3.07,23.43-13.57,10.24-9.73,52.48-52.23,56.06-55.94C574-2,573.85-13.18,571.29-10.62ZM474.38,48.64c-6.52,0-5.24-11.26,2.95-25.09s20.35-25.09,27-25.09,5.25,11.27-3.07,25.09S481,48.64,474.38,48.64Z"/><path class="cls-2" d="M631.83-10.62c-4.74,5-43.4,41.85-48.39,45.95-3.2,2.82-6.27,5.63-7.3,4.48s2.31-8.06,4.23-11.52c5.5-10.37,6.4-11,9.6-17.15,8.57-16.39-4.1-9.86-14-15.49a10,10,0,0,1-2.82-2.31c7.68-8.32,13.82-16.89,7-21.24-6.27-4.1-17.41-5.89-24.83,3.32-9.35,11.78.64,23,7.55,26.63,3.07,1.53,10.88,2.43,4.35,13.31C561,25.86,554,39.81,548.75,49.41c-7.17,13.31-3.46,19.46,5,19.46,5.25,0,12.42-3.07,23.43-13.57,10.37-9.73,52.48-52.23,56.07-55.94C634.51-2,634.39-13.18,631.83-10.62Z"/><path class="cls-2" d="M717.71-10.62c-4.73,5-43.52,41.85-48.38,45.95-3.33,2.82-6.4,5.63-7.43,4.48s2.44-8.06,4.36-11.52c5.5-10.37,23.81-44.42,23.81-44.42L669.71-16S665.1-7.42,659.22,3.71c-7.68,13.32-29.32,36.1-36.49,36.1-7.42,0-3.58-8.06-1.66-11.52,5.5-10.37,23.81-44.42,23.81-44.42L624.53-16s-25.73,48.13-31,57.73c-7.3,13.44-4.61,27.14,8.19,27.14,8.32,0,24.19-13.57,37.89-28.68-2.3,4.23-4.1,7.43-5,9.22-7.3,13.31-3.46,19.46,5,19.46,5.38,0,12.29-3.07,23.43-13.57C673.3,45.57,715.54,3.07,719.12-.64,720.4-2,720.15-13.18,717.71-10.62Z"/><path class="cls-2" d="M721.55,42.24c6.27-17.79,7.81-34.3,10.63-45.7,0,0,23.55-20.09,1.15-18.56s-23.68,26.5-27.27,46.6A115.75,115.75,0,0,1,702.61,39c-16.39,4.35-31.49,7.3-33,16.13-2.05,11.14,9.22,13.7,17.15,13.7C699.79,68.87,712.85,64.64,721.55,42.24ZM683.79,57.86c.51-2.69,6.14-4.74,13.57-7-1.67,2.56-3.33,4.35-4.87,6.4C689.29,61.57,682.89,62.6,683.79,57.86Z"/><path class="cls-2" d="M-7.45,42.24C-1.18,24.45.36,7.94,3.18-3.46c0,0,23.55-20.09,1.15-18.56s-23.68,26.5-27.27,46.6A115.75,115.75,0,0,1-26.39,39c-16.39,4.35-31.49,7.3-33,16.13-2,11.14,9.22,13.7,17.15,13.7C-29.21,68.87-16.15,64.64-7.45,42.24ZM-45.21,57.86c.51-2.69,6.14-4.74,13.57-7-1.67,2.56-3.33,4.35-4.87,6.4C-39.71,61.57-46.11,62.6-45.21,57.86Z"/></pattern></defs><g id="Layer_2" data-name="Layer 2"><g id="Layer_1-2" data-name="Layer 1"><rect class="cls-3" width="1366" height="771"/></g></g></svg>