<svg xmlns="http://www.w3.org/2000/svg" width="1920" height="1080" viewBox="0 0 508 285.75"  xmlns:v="https://vecta.io/nano"><style><![CDATA[.B{font-size:13.797px}.C{font-family:sans-serif}.D{fill:#000}.E{font-weight:400}.F{font-family:Streetwear}.G{fill:#e71d36}]]></style><path d="M0 0h508v285.75H0z" fill="#011627"/><text xml:space="preserve" x="-233.792" y="286.018" transform="matrix(.759294 -.650748 .650748 .759294 -.004 -.004)" class="B C D"><tspan x="-233.792" y="286.018" font-weight="normal" class="F G">LudmarusLudmarusLudmarusLudmarusLudmarusLudmarusLudmarusLudmarus</tspan></text><text transform="matrix(.759294 -.650748 .650748 .759294 -.004 -.004)" y="270.178" x="-252.274" xml:space="preserve" class="B C D"><tspan y="270.178" x="-252.274" font-weight="normal" class="F G">LudmarusLudmarusLudmarusLudmarusLudmarusLudmarusLudmarusLudmarus</tspan></text><text transform="matrix(.759294 -.650748 .650748 .759294 -.004 -.004)" y="317.699" x="-196.827" xml:space="preserve" class="B C D"><tspan y="317.699" x="-196.827" font-weight="normal" class="F G">LudmarusLudmarusLudmarusLudmarusLudmarusLudmarusLudmarusLudmarus</tspan></text><text xml:space="preserve" x="-215.309" y="301.859" transform="matrix(.759294 -.650748 .650748 .759294 -.004 -.004)" class="B C D"><tspan x="-215.309" y="301.859" font-weight="normal" class="F G">LudmarusLudmarusLudmarusLudmarusLudmarusLudmarusLudmarusLudmarus</tspan></text><text transform="matrix(.759294 -.650748 .650748 .759294 -.004 -.004)" y="333.54" x="-178.344" xml:space="preserve" class="B C D"><tspan y="333.54" x="-178.344" font-weight="normal" class="F G">LudmarusLudmarusLudmarusLudmarusLudmarusLudmarusLudmarusLudmarus</tspan></text><text xml:space="preserve" x="-196.827" y="317.699" transform="matrix(.759294 -.650748 .650748 .759294 -.004 -.004)" class="B C D"><tspan x="-196.827" y="317.699" font-weight="normal" class="F G">LudmarusLudmarusLudmarusLudmarusLudmarusLudmarusLudmarusLudmarus</tspan></text><text xml:space="preserve" x="-141.38" y="365.221" transform="matrix(.759294 -.650748 .650748 .759294 -.004 -.004)" class="B C D"><tspan x="-141.38" y="365.221" font-weight="normal" class="F G">LudmarusLudmarusLudmarusLudmarusLudmarusLudmarusLudmarusLudmarus</tspan></text><text transform="matrix(.759294 -.650748 .650748 .759294 -.004 -.004)" y="349.38" x="-159.862" xml:space="preserve" class="B C D"><tspan y="349.38" x="-159.862" font-weight="normal" class="F G">LudmarusLudmarusLudmarusLudmarusLudmarusLudmarusLudmarusLudmarus</tspan></text><text transform="matrix(.759294 -.650748 .650748 .759294 -.004 -.004)" y="428.654" x="-67.367" xml:space="preserve" class="B C D"><tspan y="428.654" x="-67.367" font-weight="normal" class="F G">LudmarusLudmarusLudmarusLudmarusLudmarusLudmarusLudmarusLudmarus</tspan></text><text xml:space="preserve" x="-85.849" y="412.814" transform="matrix(.759294 -.650748 .650748 .759294 -.004 -.004)" class="B C D"><tspan x="-85.849" y="412.814" font-weight="normal" class="F G">LudmarusLudmarusLudmarusLudmarusLudmarusLudmarusLudmarusLudmarus</tspan></text><text transform="matrix(.759294 -.650748 .650748 .759294 -.004 -.004)" y="444.495" x="-48.884" xml:space="preserve" class="B C D"><tspan y="444.495" x="-48.884" font-weight="normal" class="F G">LudmarusLudmarusLudmarusLudmarusLudmarusLudmarusLudmarusLudmarus</tspan></text><text xml:space="preserve" x="-11.919" y="476.175" transform="matrix(.759294 -.650748 .650748 .759294 -.004 -.004)" class="B C D"><tspan x="-11.919" y="476.175" font-weight="normal" class="F G">LudmarusLudmarusLudmarusLudmarusLudmarusLudmarusLudmarusLudmarus</tspan></text><text transform="matrix(.759294 -.650748 .650748 .759294 -.004 -.004)" y="460.335" x="-30.402" xml:space="preserve" class="B C D"><tspan y="460.335" x="-30.402" font-weight="normal" class="F G">LudmarusLudmarusLudmarusLudmarusLudmarusLudmarusLudmarusLudmarus</tspan></text><text transform="matrix(.759294 -.650748 .650748 .759294 -.004 -.004)" y="507.856" x="25.045" xml:space="preserve" class="B C D"><tspan y="507.856" x="25.045" font-weight="normal" class="F G">LudmarusLudmarusLudmarusLudmarusLudmarusLudmarusLudmarusLudmarus</tspan></text><text xml:space="preserve" x="6.563" y="492.016" transform="matrix(.759294 -.650748 .650748 .759294 -.004 -.004)" class="B C D"><tspan x="6.563" y="492.016" font-weight="normal" class="F G">LudmarusLudmarusLudmarusLudmarusLudmarusLudmarusLudmarusLudmarus</tspan></text><text xml:space="preserve" x="-104.415" y="396.901" transform="matrix(.759294 -.650748 .650748 .759294 -.004 -.004)" class="B C D"><tspan x="-104.415" y="396.901" font-weight="normal" class="F G">LudmarusLudmarusLudmarusLudmarusLudmarusLudmarusLudmarusLudmarus</tspan></text><text transform="matrix(.759294 -.650748 .650748 .759294 -.004 -.004)" y="381.061" x="-122.898" xml:space="preserve" class="B C D"><tspan y="381.061" x="-122.898" font-weight="normal" class="F G">LudmarusLudmarusLudmarusLudmarusLudmarusLudmarusLudmarusLudmarus</tspan></text><text xml:space="preserve" x="61.926" y="539.465" transform="matrix(.759294 -.650748 .650748 .759294 -.004 -.004)" class="B C D"><tspan x="61.926" y="539.465" font-weight="normal" class="F G">LudmarusLudmarusLudmarusLudmarusLudmarusLudmarusLudmarusLudmarus</tspan></text><text transform="matrix(.759294 -.650748 .650748 .759294 -.004 -.004)" y="523.625" x="43.444" xml:space="preserve" class="B C D"><tspan y="523.625" x="43.444" font-weight="normal" class="F G">LudmarusLudmarusLudmarusLudmarusLudmarusLudmarusLudmarusLudmarus</tspan></text><path d="M0 0h508v285.75H0z" fill="#011627"/><text transform="matrix(.759294 -.650748 .650748 .759294 -.004 -.004)" y="286.018" x="-233.792" xml:space="preserve" class="B C D"><tspan y="286.018" x="-233.792" font-weight="normal" class="F G">LudmarusLudmarusLudmarusLudmarusLudmarusLudmarusLudmarusLudmarus</tspan></text><text xml:space="preserve" x="-252.274" y="270.178" transform="matrix(.759294 -.650748 .650748 .759294 -.004 -.004)" class="B C D"><tspan x="-252.274" y="270.178" font-weight="normal" class="F G">LudmarusLudmarusLudmarusLudmarusLudmarusLudmarusLudmarusLudmarus</tspan></text><text xml:space="preserve" x="-196.827" y="317.699" transform="matrix(.759294 -.650748 .650748 .759294 -.004 -.004)" class="B C D"><tspan x="-196.827" y="317.699" font-weight="normal" class="F G">LudmarusLudmarusLudmarusLudmarusLudmarusLudmarusLudmarusLudmarus</tspan></text><text transform="matrix(.759294 -.650748 .650748 .759294 -.004 -.004)" y="301.859" x="-215.309" xml:space="preserve" class="B C D"><tspan y="301.859" x="-215.309" font-weight="normal" class="F G">LudmarusLudmarusLudmarusLudmarusLudmarusLudmarusLudmarusLudmarus</tspan></text><text xml:space="preserve" x="-178.344" y="333.54" transform="matrix(.759294 -.650748 .650748 .759294 -.004 -.004)" class="B C D"><tspan x="-178.344" y="333.54" font-weight="normal" class="F G">LudmarusLudmarusLudmarusLudmarusLudmarusLudmarusLudmarusLudmarus</tspan></text><text transform="matrix(.759294 -.650748 .650748 .759294 -.004 -.004)" y="365.221" x="-141.38" xml:space="preserve" class="B C D"><tspan y="365.221" x="-141.38" font-weight="normal" class="F G">LudmarusLudmarusLudmarusLudmarusLudmarusLudmarusLudmarusLudmarus</tspan></text><text xml:space="preserve" x="-159.862" y="349.38" transform="matrix(.759294 -.650748 .650748 .759294 -.004 -.004)" class="B C D"><tspan x="-159.862" y="349.38" font-weight="normal" class="F G">LudmarusLudmarusLudmarusLudmarusLudmarusLudmarusLudmarusLudmarus</tspan></text><text xml:space="preserve" x="-67.367" y="428.654" transform="matrix(.759294 -.650748 .650748 .759294 -.004 -.004)" class="B C D"><tspan x="-67.367" y="428.654" font-weight="normal" class="F G">LudmarusLudmarusLudmarusLudmarusLudmarusLudmarusLudmarusLudmarus</tspan></text><text transform="matrix(.759294 -.650748 .650748 .759294 -.004 -.004)" y="412.814" x="-85.849" xml:space="preserve" class="B C D"><tspan y="412.814" x="-85.849" font-weight="normal" class="F G">LudmarusLudmarusLudmarusLudmarusLudmarusLudmarusLudmarusLudmarus</tspan></text><text xml:space="preserve" x="-48.884" y="444.495" transform="matrix(.759294 -.650748 .650748 .759294 -.004 -.004)" class="B C D"><tspan x="-48.884" y="444.495" font-weight="normal" class="F G">LudmarusLudmarusLudmarusLudmarusLudmarusLudmarusLudmarusLudmarus</tspan></text><text transform="matrix(.759294 -.650748 .650748 .759294 -.004 -.004)" y="476.175" x="-11.919" xml:space="preserve" class="B C D"><tspan y="476.175" x="-11.919" font-weight="normal" class="F G">LudmarusLudmarusLudmarusLudmarusLudmarusLudmarusLudmarusLudmarus</tspan></text><text xml:space="preserve" x="-30.402" y="460.335" transform="matrix(.759294 -.650748 .650748 .759294 -.004 -.004)" class="B C D"><tspan x="-30.402" y="460.335" font-weight="normal" class="F G">LudmarusLudmarusLudmarusLudmarusLudmarusLudmarusLudmarusLudmarus</tspan></text><text xml:space="preserve" x="25.045" y="507.856" transform="matrix(.759294 -.650748 .650748 .759294 -.004 -.004)" class="B C D"><tspan x="25.045" y="507.856" font-weight="normal" class="F G">LudmarusLudmarusLudmarusLudmarusLudmarusLudmarusLudmarusLudmarus</tspan></text><text transform="matrix(.759294 -.650748 .650748 .759294 -.004 -.004)" y="492.016" x="6.563" xml:space="preserve" class="B C D"><tspan y="492.016" x="6.563" font-weight="normal" class="F G">LudmarusLudmarusLudmarusLudmarusLudmarusLudmarusLudmarusLudmarus</tspan></text><text transform="matrix(.759294 -.650748 .650748 .759294 -.004 -.004)" y="396.901" x="-104.415" xml:space="preserve" class="B C D"><tspan y="396.901" x="-104.415" font-weight="normal" class="F G">LudmarusLudmarusLudmarusLudmarusLudmarusLudmarusLudmarusLudmarus</tspan></text><text xml:space="preserve" x="-122.898" y="381.061" transform="matrix(.759294 -.650748 .650748 .759294 -.004 -.004)" class="B C D"><tspan x="-122.898" y="381.061" font-weight="normal" class="F G">LudmarusLudmarusLudmarusLudmarusLudmarusLudmarusLudmarusLudmarus</tspan></text><text transform="matrix(.759294 -.650748 .650748 .759294 -.004 -.004)" y="539.465" x="61.926" xml:space="preserve" class="B C D"><tspan y="539.465" x="61.926" font-weight="normal" class="F G">LudmarusLudmarusLudmarusLudmarusLudmarusLudmarusLudmarusLudmarus</tspan></text><text transform="matrix(.759294 -.650748 .650748 .759294 -.004 -.004)" y="0.891" x="-566.474" xml:space="preserve" class="B C D"><tspan y="0.891" x="-566.474" font-weight="normal" class="F G">LudmarusLudmarusLudmarusLudmarusLudmarusLudmarusLudmarusLudmarus</tspan></text><text xml:space="preserve" x="-584.956" y="-14.95" transform="matrix(.759294 -.650748 .650748 .759294 -.004 -.004)" class="B C D"><tspan x="-584.956" y="-14.95" font-weight="normal" class="F G">LudmarusLudmarusLudmarusLudmarusLudmarusLudmarusLudmarusLudmarus</tspan></text><text xml:space="preserve" x="-529.509" y="32.572" transform="matrix(.759294 -.650748 .650748 .759294 -.004 -.004)" class="B C D"><tspan x="-529.509" y="32.572" font-weight="normal" class="F G">LudmarusLudmarusLudmarusLudmarusLudmarusLudmarusLudmarusLudmarus</tspan></text><text transform="matrix(.759294 -.650748 .650748 .759294 -.004 -.004)" y="16.731" x="-547.992" xml:space="preserve" class="B C D"><tspan y="16.731" x="-547.992" font-weight="normal" class="F G">LudmarusLudmarusLudmarusLudmarusLudmarusLudmarusLudmarusLudmarus</tspan></text><text xml:space="preserve" x="-511.027" y="48.412" transform="matrix(.759294 -.650748 .650748 .759294 -.004 -.004)" class="B C D"><tspan x="-511.027" y="48.412" font-weight="normal" class="F G">LudmarusLudmarusLudmarusLudmarusLudmarusLudmarusLudmarusLudmarus</tspan></text><text transform="matrix(.759294 -.650748 .650748 .759294 -.004 -.004)" y="80.093" x="-474.062" xml:space="preserve" class="B C D"><tspan y="80.093" x="-474.062" font-weight="normal" class="F G">LudmarusLudmarusLudmarusLudmarusLudmarusLudmarusLudmarusLudmarus</tspan></text><text xml:space="preserve" x="-492.545" y="64.253" transform="matrix(.759294 -.650748 .650748 .759294 -.004 -.004)" class="B C D"><tspan x="-492.545" y="64.253" font-weight="normal" class="F G">LudmarusLudmarusLudmarusLudmarusLudmarusLudmarusLudmarusLudmarus</tspan></text><text xml:space="preserve" x="-400.049" y="143.526" transform="matrix(.759294 -.650748 .650748 .759294 -.004 -.004)" class="B C D"><tspan x="-400.049" y="143.526" font-weight="normal" class="F G">LudmarusLudmarusLudmarusLudmarusLudmarusLudmarusLudmarusLudmarus</tspan></text><text transform="matrix(.759294 -.650748 .650748 .759294 -.004 -.004)" y="127.686" x="-418.532" xml:space="preserve" class="B C D"><tspan y="127.686" x="-418.532" font-weight="normal" class="F G">LudmarusLudmarusLudmarusLudmarusLudmarusLudmarusLudmarusLudmarus</tspan></text><text xml:space="preserve" x="-381.567" y="159.367" transform="matrix(.759294 -.650748 .650748 .759294 -.004 -.004)" class="B C D"><tspan x="-381.567" y="159.367" font-weight="normal" class="F G">LudmarusLudmarusLudmarusLudmarusLudmarusLudmarusLudmarusLudmarus</tspan></text><text transform="matrix(.759294 -.650748 .650748 .759294 -.004 -.004)" y="191.048" x="-344.602" xml:space="preserve" class="B C D"><tspan y="191.048" x="-344.602" font-weight="normal" class="F G">LudmarusLudmarusLudmarusLudmarusLudmarusLudmarusLudmarusLudmarus</tspan></text><text xml:space="preserve" x="-363.084" y="175.207" transform="matrix(.759294 -.650748 .650748 .759294 -.004 -.004)" class="B C D"><tspan x="-363.084" y="175.207" font-weight="normal" class="F G">LudmarusLudmarusLudmarusLudmarusLudmarusLudmarusLudmarusLudmarus</tspan></text><text xml:space="preserve" x="-307.637" y="222.729" transform="matrix(.759294 -.650748 .650748 .759294 -.004 -.004)" class="B C D"><tspan x="-307.637" y="222.729" font-weight="normal" class="F G">LudmarusLudmarusLudmarusLudmarusLudmarusLudmarusLudmarusLudmarus</tspan></text><text transform="matrix(.759294 -.650748 .650748 .759294 -.004 -.004)" y="206.888" x="-326.12" xml:space="preserve" class="B C D"><tspan y="206.888" x="-326.12" font-weight="normal" class="F G">LudmarusLudmarusLudmarusLudmarusLudmarusLudmarusLudmarusLudmarus</tspan></text><text transform="matrix(.759294 -.650748 .650748 .759294 -.004 -.004)" y="111.774" x="-437.098" xml:space="preserve" class="B C D"><tspan y="111.774" x="-437.098" font-weight="normal" class="F G">LudmarusLudmarusLudmarusLudmarusLudmarusLudmarusLudmarusLudmarus</tspan></text><text xml:space="preserve" x="-455.58" y="95.933" transform="matrix(.759294 -.650748 .650748 .759294 -.004 -.004)" class="B C D"><tspan x="-455.58" y="95.933" font-weight="normal" class="F G">LudmarusLudmarusLudmarusLudmarusLudmarusLudmarusLudmarusLudmarus</tspan></text><text transform="matrix(.759294 -.650748 .650748 .759294 -.004 -.004)" y="254.338" x="-270.756" xml:space="preserve" class="B C D"><tspan y="254.338" x="-270.756" font-weight="normal" class="F G">LudmarusLudmarusLudmarusLudmarusLudmarusLudmarusLudmarusLudmarus</tspan></text><text xml:space="preserve" x="-289.239" y="238.497" transform="matrix(.759294 -.650748 .650748 .759294 -.004 -.004)" class="B C D"><tspan x="-289.239" y="238.497" font-weight="normal" class="F G">LudmarusLudmarusLudmarusLudmarusLudmarusLudmarusLudmarusLudmarus</tspan></text><text xml:space="preserve" x="80.408" y="555.306" transform="matrix(.759294 -.650748 .650748 .759294 -.004 -.004)" class="B C D"><tspan x="80.408" y="555.306" font-weight="normal" class="F G">LudmarusLudmarusLudmarusLudmarusLudmarusLudmarusLudmarusLudmarus</tspan></text><text transform="matrix(.759294 -.650748 .650748 .759294 -.004 -.004)" y="523.625" x="43.444" xml:space="preserve" class="B C D"><tspan y="523.625" x="43.444" font-weight="normal" class="F G">LudmarusLudmarusLudmarusLudmarusLudmarusLudmarusLudmarusLudmarus</tspan></text></svg>