<?xml version="1.0" encoding="UTF-8" standalone="no"?>
<svg
   viewBox="0 0 130.41 19.14"
   version="1.1"
   id="svg2"
   sodipodi:docname="LogoW-vec.svg"
   inkscape:version="1.3.2 (091e20ef0f, 2023-11-25, custom)"
   xmlns:inkscape="http://www.inkscape.org/namespaces/inkscape"
   xmlns:sodipodi="http://sodipodi.sourceforge.net/DTD/sodipodi-0.dtd"
   xmlns="http://www.w3.org/2000/svg"
   xmlns:svg="http://www.w3.org/2000/svg">
  <sodipodi:namedview
     id="namedview2"
     pagecolor="#505050"
     bordercolor="#ffffff"
     borderopacity="1"
     inkscape:showpageshadow="0"
     inkscape:pageopacity="0"
     inkscape:pagecheckerboard="1"
     inkscape:deskcolor="#505050"
     inkscape:zoom="15.466605"
     inkscape:cx="65.205002"
     inkscape:cy="9.6013315"
     inkscape:window-width="2508"
     inkscape:window-height="1416"
     inkscape:window-x="0"
     inkscape:window-y="0"
     inkscape:window-maximized="1"
     inkscape:current-layer="svg2" />
  <defs
     id="defs1">
    <style
       id="style1">.cls-1{font-size:18px;fill:#fff;font-family:Prefectura-Normal, Prefectura;}.cls-2{letter-spacing:0.3em;}</style>
  </defs>
  <g
     id="Layer_2"
     data-name="Layer 2">
    <g
       id="Layer_1-2"
       data-name="Layer 1">
      <g
         id="text2"
         class="cls-1"
         style="font-size:18px;font-family:Prefectura-Normal, Prefectura;fill:#ffffff"
         transform="translate(0 15.22)"
         aria-label="LUDMARUS">
        <path
           style="letter-spacing:0.3em"
           d="M 1.008,-12.438 V 0 H 9.432 V -2.448 H 3.456 v -9.99 z m 24.929987,-0.036 h -2.448 v 7.128 q 0.018,0.792 -0.306,1.566 -0.63,1.566 -2.304,1.566 -1.656,0 -2.304,-1.566 -0.324,-0.774 -0.306,-1.566 v -7.128 h -2.448 v 7.128 q 0,2.142 1.098,3.582 1.35,1.764 3.978,1.764 2.61,0 3.96,-1.764 1.08,-1.44 1.08,-3.582 z m 9.935997,2.088 h 2.214 q 1.458,0 2.466,1.098 1.062,1.17 1.062,3.06 0,1.926 -0.972,3.06 -0.918,1.098 -2.376,1.098 h -2.394 z M 38.609984,0 q 2.538,0 3.942,-1.638 1.422,-1.638 1.422,-4.59 0,-2.88 -1.602,-4.572 -1.548,-1.638 -4.086,-1.638 h -4.95 V 0 Z m 21.455988,-12.438 -3.024,9.072 -3.006,-9.072 h -3.15 V 0 h 2.448 l -0.18,-7.758 2.754,7.758 h 2.286 l 2.754,-7.758 -0.18,7.758 h 2.448 v -12.438 z m 14.022002,0 -4.77,12.438 h 2.448 l 0.972,-2.52 h 5.112 l 0.954,2.52 h 2.466 l -4.77,-12.438 z m 1.206,3.168 1.764,4.662 h -3.528 z m 14.525983,-1.116 h 1.764 q 1.08,0 1.764,0.414 0.81,0.486 0.81,1.476 0,0.81 -0.738,1.26 -0.63,0.396 -1.44,0.396 h -2.16 z m 0,5.778 q 1.026,0 1.818,0 h 0.198 l 2.178,4.608 h 2.502 l -2.394,-4.986 0.342,-0.144 q 0.774,-0.396 1.314,-1.242 0.63,-0.99 0.63,-2.16 0,-1.818 -1.296,-2.844 -1.35,-1.062 -3.852,-1.062 h -3.798 V 0 h 2.358 z m 23.598003,-7.866 h -2.448 v 7.128 q 0.018,0.792 -0.306,1.566 -0.63,1.566 -2.304,1.566 -1.656,0 -2.304,-1.566 -0.324,-0.774 -0.306,-1.566 v -7.128 h -2.448 v 7.128 q 0,2.142 1.098,3.582 1.35,1.764 3.978,1.764 2.61,0 3.96,-1.764 1.08,-1.44 1.08,-3.582 z"
           id="path2" />
        <path
           d="m 125.318,-7.452 q -1.53,-0.108 -2.178,-0.666 -0.234,-0.198 -0.342,-0.468 -0.072,-0.198 -0.072,-0.432 0,-0.846 0.648,-1.296 0.558,-0.396 1.44,-0.396 0.702,0 1.242,0.252 0.45,0.216 0.774,0.594 0.378,0.432 0.522,0.864 l 1.89,-0.99 q -0.324,-0.666 -1.026,-1.314 -1.404,-1.332 -3.276,-1.332 -2.178,0 -3.438,1.026 -1.188,0.972 -1.188,2.52 0,3.402 4.77,3.816 l 0.36,0.036 0.396,0.036 q 0.468,0.09 0.792,0.234 0.864,0.378 0.864,1.332 0,1.692 -2.628,1.692 -0.99,0 -1.71,-0.612 -0.252,-0.216 -0.576,-0.612 l -0.288,-0.324 -0.27,-0.36 -2.16,1.224 0.126,0.162 0.144,0.18 q 0.198,0.252 0.36,0.432 0.468,0.54 0.972,0.918 1.458,1.098 3.51,1.098 2.268,0 3.636,-1.026 1.368,-1.044 1.368,-2.772 0,-3.456 -4.662,-3.816 z"
           id="path3" />
      </g>
    </g>
  </g>
</svg>
