<?xml version="1.0" encoding="UTF-8" standalone="no"?>
<svg
   xmlns:dc="http://purl.org/dc/elements/1.1/"
   xmlns:cc="http://creativecommons.org/ns#"
   xmlns:rdf="http://www.w3.org/1999/02/22-rdf-syntax-ns#"
   xmlns:svg="http://www.w3.org/2000/svg"
   xmlns="http://www.w3.org/2000/svg"
   width="179.9438"
   height="29.119907"
   viewBox="0 0 47.610129 7.7046422"
   version="1.1"
   id="svg8">
  <defs
     id="defs2" />
  <metadata
     id="metadata5">
    <rdf:RDF>
      <cc:Work
         rdf:about="">
        <dc:format>image/svg+xml</dc:format>
        <dc:type
           rdf:resource="http://purl.org/dc/dcmitype/StillImage" />
        <dc:title></dc:title>
      </cc:Work>
    </rdf:RDF>
  </metadata>
  <g
     transform="translate(-13.21176,-42.786212)"
     id="layer1">
    <g
       style="font-style:normal;font-weight:normal;font-size:10.5833px;line-height:1.25;font-family:sans-serif;fill:#000000;fill-opacity:1;stroke:none;stroke-width:0.264583"
       id="text835-5"
       aria-label="Ludmarus.">
      <path
         id="path1449"
         style="fill:#fdfffc;fill-opacity:1;stroke-width:0.264583"
         d="m 13.344052,42.918504 v 7.31306 h 4.952985 v -1.439329 h -3.513656 v -5.873731 z" />
      <path
         id="path1451"
         style="fill:#fdfffc;fill-opacity:1;stroke-width:0.264583"
         d="m 22.055762,47.543405 q 0,0.751415 -0.275166,1.15358 -0.264582,0.359832 -0.698498,0.359832 -0.497415,0 -0.698497,-0.370415 -0.169333,-0.317499 -0.169333,-1.037164 v -2.793991 h -1.428746 v 2.793991 q 0,2.582326 1.799161,2.582326 0.497415,0 0.941914,-0.275166 0.169333,-0.105833 0.328082,-0.253999 0.105833,-0.09525 0.201083,-0.211666 v 0.666747 h 1.418162 v -5.312816 h -1.418162 z" />
      <path
         id="path1453"
         style="fill:#fdfffc;fill-opacity:1;stroke-width:0.264583"
         d="m 26.884392,46.05116 q 0.592665,0 0.93133,0.433915 0.296333,0.370416 0.338666,1.026581 v 0.232832 q -0.04233,0.634998 -0.370416,1.037164 -0.359832,0.444498 -0.89958,0.444498 -0.645582,0 -0.973664,-0.465665 -0.306915,-0.412749 -0.306915,-1.132413 0,-1.576912 1.280579,-1.576912 z m -0.391582,4.307403 q 0.603248,0 1.05833,-0.179916 0.349249,-0.127 0.603248,-0.465665 l 0.07408,0.539748 h 1.322912 v -7.323643 h -1.396995 v 2.582325 q -0.22225,-0.264583 -0.560915,-0.423332 -0.423332,-0.201083 -0.984247,-0.201083 -1.05833,0 -1.725078,0.772581 -0.656164,0.740831 -0.656164,1.830911 0,1.164163 0.560914,1.968494 0.624415,0.89958 1.703912,0.89958 z" />
      <path
         id="path1455"
         style="fill:#fdfffc;fill-opacity:1;stroke-width:0.264583"
         d="m 36.420772,44.886997 q -0.476248,0 -0.878414,0.22225 -0.296332,0.169332 -0.539748,0.455081 -0.03175,0.04233 -0.09525,0.116417 l -0.02117,0.0635 q -0.02117,0.03175 -0.02117,0.04233 v 0 q -0.296332,-0.899581 -1.333496,-0.899581 -0.507998,0 -0.952497,0.275166 -0.169333,0.116416 -0.306915,0.243416 -0.116417,0.105833 -0.211666,0.211666 V 44.971661 H 30.66345 v 5.2599 h 1.396996 v -2.677575 q 0,-0.740831 0.275165,-1.142997 0.254,-0.359832 0.698498,-0.359832 0.476249,0 0.582082,0.370416 0.05292,0.190499 0.05292,1.037163 v 2.772825 h 1.365246 l -0.01058,-2.772825 v -0.105833 q 0,-0.0635 0,-0.116416 0.01058,-0.169333 0.05292,-0.391582 0.148166,-0.793748 0.846664,-0.793748 0.476248,0 0.582081,0.370416 0.05292,0.190499 0.05292,1.037163 v 2.772825 h 1.418162 l -0.01058,-2.772825 h 0.01058 q 0,-1.280579 -0.243416,-1.820327 -0.338665,-0.751415 -1.312329,-0.751415 z" />
      <path
         id="path1457"
         style="fill:#fdfffc;fill-opacity:1;stroke-width:0.264583"
         d="m 40.973741,49.268483 q -0.666748,0.148166 -0.941914,-0.126999 -0.211666,-0.201083 -0.137583,-0.571498 0.07408,-0.359833 0.465666,-0.539749 0.476248,-0.232832 1.534578,-0.179916 0.04233,0.201083 -0.05292,0.560915 -0.1905,0.698498 -0.867831,0.857247 z m 2.275409,-2.465909 q 0,-1.132413 -0.603248,-1.608661 -0.550331,-0.423332 -1.788577,-0.423332 -0.687915,0 -1.21708,0.380999 -0.423332,0.317499 -0.645581,0.804331 l 1.037163,0.603248 q 0.105833,-0.1905 0.179916,-0.296333 0.116417,-0.169333 0.22225,-0.264582 0.306915,-0.264583 0.740831,-0.232833 0.507998,0.03175 0.634998,0.359832 0.04233,0.127 0.05292,0.328083 v 0.179916 0.190499 q -0.486832,0 -0.888997,0.04233 -0.550332,0.0635 -0.973664,0.1905 -1.121829,0.359832 -1.365245,1.248829 -0.232833,0.899581 0.444498,1.513412 0.613832,0.550331 1.396996,0.465665 0.613831,-0.07408 1.09008,-0.253999 0.137583,-0.0635 0.253999,-0.116416 0.04233,-0.02117 0.0635,-0.04233 0.02117,-0.01058 0.01058,-0.01058 l 0.105833,0.370416 h 1.195913 q 0.01058,-0.338666 0.01058,-0.687915 0,-0.285749 0.01058,-0.719664 0,-0.306916 0.01058,-0.793748 0.02117,-1.037163 0.02117,-1.227663 z" />
      <path
         id="path1459"
         style="fill:#fdfffc;fill-opacity:1;stroke-width:0.264583"
         d="m 47.927465,44.791748 q -1.407579,-0.179917 -2.27541,0.709081 V 44.834081 H 44.22331 v 5.397483 h 1.428745 v -2.751658 q -0.04233,-1.111247 0.804331,-1.375829 0.857247,-0.264583 1.471079,0.07408 z" />
      <path
         id="path1461"
         style="fill:#fdfffc;fill-opacity:1;stroke-width:0.264583"
         d="m 51.821291,47.543405 q 0,0.751415 -0.275165,1.15358 -0.264583,0.359832 -0.698498,0.359832 -0.497415,0 -0.698498,-0.370415 -0.169333,-0.317499 -0.169333,-1.037164 v -2.793991 h -1.428745 v 2.793991 q 0,2.582326 1.799161,2.582326 0.497415,0 0.941913,-0.275166 0.169333,-0.105833 0.328083,-0.253999 0.105833,-0.09525 0.201082,-0.211666 v 0.666747 h 1.418163 v -5.312816 h -1.418163 z" />
      <path
         id="path1463"
         style="fill:#fdfffc;fill-opacity:1;stroke-width:0.264583"
         d="m 56.51234,46.897824 q -0.677331,-0.07408 -0.89958,-0.306916 -0.08467,-0.09525 -0.116416,-0.201082 L 55.48576,46.283993 V 46.17816 q 0,-0.201083 0.15875,-0.359832 0.190499,-0.179916 0.539748,-0.179916 0.476249,0 0.740831,0.338665 0.148166,0.169333 0.190499,0.338666 l 1.142997,-0.560915 q -0.148166,-0.275166 -0.476249,-0.571498 -0.645581,-0.582082 -1.513411,-0.582082 -1.005414,0 -1.576912,0.455082 -0.550332,0.423332 -0.550332,1.100663 0,0.761998 0.539749,1.227663 0.560914,0.476248 1.598078,0.571498 l 0.169333,0.01058 0.179916,0.02117 q 0.211666,0.03175 0.349249,0.08467 0.359832,0.15875 0.306915,0.582082 -0.08467,0.550332 -1.015996,0.444499 -0.465666,-0.04233 -0.730248,-0.264583 -0.09525,-0.07408 -0.222249,-0.211666 l -0.116417,-0.137583 -0.126999,-0.148166 -1.142997,0.656165 0.05292,0.07408 0.07408,0.08467 q 0.08467,0.105833 0.158749,0.190499 0.22225,0.232833 0.455082,0.402166 0.592665,0.507998 1.619245,0.592665 1.09008,0.03175 1.714495,-0.529165 0.571498,-0.624415 0.592664,-1.259413 0,-1.460495 -2.08491,-1.650995 z" />
      <path
         id="path1465"
         style="fill:#011627;fill-opacity:1;stroke-width:0.264583"
         d="m 60.6896,49.35315 q 0,0.359832 -0.264583,0.624414 -0.253999,0.254 -0.624414,0.254 -0.359832,0 -0.624415,-0.254 -0.253999,-0.264582 -0.253999,-0.624414 0,-0.370416 0.253999,-0.624415 0.264583,-0.264582 0.624415,-0.264582 0.370415,0 0.624414,0.264582 0.264583,0.253999 0.264583,0.624415 z" />
    </g>
  </g>
</svg>
