<svg xmlns="http://www.w3.org/2000/svg" viewBox="0 0 34 34"><defs><style>.cls-1{fill:#011627;}</style></defs><g id="Capa_2" data-name="Capa 2"><g id="Capa_1-2" data-name="Capa 1"><path class="cls-1" d="M21.69,10.43H12.31a1.43,1.43,0,0,0-1.43,1.44v9.46a1.44,1.44,0,0,0,1.43,1.45h7.94l-.37-1.3.89.83.85.79,1.51,1.33V11.87A1.44,1.44,0,0,0,21.69,10.43ZM19,19.57,18.53,19a2.22,2.22,0,0,0,1.26-.83,3.8,3.8,0,0,1-.8.41,4.19,4.19,0,0,1-1,.3,5,5,0,0,1-1.81,0,6.42,6.42,0,0,1-1-.3c-.16-.07-.33-.14-.51-.24l-.06,0s0,0,0,0l-.2-.12a2.21,2.21,0,0,0,1.23.83l-.47.58A2.55,2.55,0,0,1,13,18.51a9.39,9.39,0,0,1,1-4.09,3.5,3.5,0,0,1,2-.73l.07.08a4.79,4.79,0,0,0-1.84.92l.41-.2a5.23,5.23,0,0,1,1.59-.44l.12,0a6,6,0,0,1,1.41,0,5.73,5.73,0,0,1,2.11.67,4.72,4.72,0,0,0-1.74-.89l.1-.11a3.48,3.48,0,0,1,2,.73,9.39,9.39,0,0,1,1,4.09A2.55,2.55,0,0,1,19,19.57ZM15.73,16.3a.78.78,0,1,0,.72.78.75.75,0,0,0-.72-.78m2.56,0a.78.78,0,0,0,0,1.55.78.78,0,0,0,0-1.55"/><path class="cls-1" d="M17,34A17,17,0,1,1,34,17,17,17,0,0,1,17,34ZM17,2A15,15,0,1,0,32,17,15,15,0,0,0,17,2Z"/></g></g></svg>