<svg xmlns="http://www.w3.org/2000/svg" viewBox="0 0 34 34"><defs><style>.cls-1{fill:#011627;}</style></defs><g id="Capa_2" data-name="Capa 2"><g id="Capa_1-2" data-name="Capa 1"><path class="cls-1" d="M17,34A17,17,0,1,1,34,17,17,17,0,0,1,17,34ZM17,2A15,15,0,1,0,32,17,15,15,0,0,0,17,2Z"/><path class="cls-1" d="M21.86,12.49A11.45,11.45,0,0,0,19,11.58c-.12.23-.27.53-.37.77a10.73,10.73,0,0,0-3.2,0c-.1-.24-.25-.54-.37-.77a11.6,11.6,0,0,0-2.89.91,12.1,12.1,0,0,0-2.08,8.11,11.49,11.49,0,0,0,3.54,1.82,8.33,8.33,0,0,0,.76-1.25,7.72,7.72,0,0,1-1.19-.58l.29-.24a8.14,8.14,0,0,0,7.08,0l.29.24a8.19,8.19,0,0,1-1.19.58,8.33,8.33,0,0,0,.76,1.25,11.49,11.49,0,0,0,3.54-1.82A12.12,12.12,0,0,0,21.86,12.49ZM14.67,19a1.45,1.45,0,0,1,0-2.87,1.34,1.34,0,0,1,1.26,1.44A1.35,1.35,0,0,1,14.67,19Zm4.66,0a1.45,1.45,0,0,1,0-2.87,1.34,1.34,0,0,1,1.25,1.44A1.35,1.35,0,0,1,19.33,19Z"/></g></g></svg>