<svg xmlns="http://www.w3.org/2000/svg" viewBox="0 0 34 34"><defs><style>.cls-1,.cls-2{fill:#011627;}.cls-1{fill-rule:evenodd;}</style></defs><g id="Capa_2" data-name="Capa 2"><g id="Capa_1-2" data-name="Capa 1"><path class="cls-1" d="M19.79,24c0-.32,0-1.33,0-2.58a2.23,2.23,0,0,0-.64-1.74c2.09-.24,4.29-1,4.29-4.64a3.68,3.68,0,0,0-1-2.53A3.39,3.39,0,0,0,22.4,10s-.79-.26-2.58,1a8.79,8.79,0,0,0-4.7,0c-1.8-1.21-2.59-1-2.59-1a3.43,3.43,0,0,0-.09,2.49,3.67,3.67,0,0,0-1,2.53c0,3.59,2.18,4.4,4.27,4.64a2,2,0,0,0-.6,1.25,2,2,0,0,1-2.73-.77,1.88,1.88,0,0,0-1.45-1c-.78,0-.31.44,0,.62a3.46,3.46,0,0,1,1,1.33c.19.52.8,1.53,3.16,1.1,0,.79,0,1.53,0,1.75"/><path class="cls-2" d="M17,34A17,17,0,1,1,34,17,17,17,0,0,1,17,34ZM17,2A15,15,0,1,0,32,17,15,15,0,0,0,17,2Z"/></g></g></svg>