<svg xmlns="http://www.w3.org/2000/svg" viewBox="0 0 61.46 14.5"><defs><style>.cls-1{fill:#e71d36;}</style></defs><g id="Capa_2" data-name="Capa 2"><g id="Capa_1-2" data-name="Capa 1"><polygon class="cls-1" points="56.21 14.5 50.12 14.5 55.38 0.33 61.46 0.33 56.21 14.5"/><path d="M3.87,11.22v.93H0V0H.94V11.22Z"/><path d="M10.76,3.37v8.78h-.65L10,11.47a1.65,1.65,0,0,1-1.37.77A1.83,1.83,0,0,1,6.87,10.3V3.37H7.8V10.3a1,1,0,1,0,2,0V3.37Z"/><path d="M17.83,12.15h-.64L17,11.47a1.63,1.63,0,0,1-1.37.77,1.84,1.84,0,0,1-1.71-1.94V5.22a1.84,1.84,0,0,1,1.71-1.94,1.61,1.61,0,0,1,1.25.61V.11L17.83,0ZM16.9,5.22a1,1,0,1,0-2,0V10.3a1,1,0,0,0,2,0Z"/><path d="M27,5.22a1,1,0,0,0-2,0v6.93H24V5.22a1,1,0,1,0-2,0v6.93h-.94V3.37h.65l.16.68a1.65,1.65,0,0,1,1.37-.77,1.67,1.67,0,0,1,1.28.65A1.88,1.88,0,0,1,26,3.28a1.93,1.93,0,0,1,1.94,1.94v6.93H27Z"/><path d="M34.86,10.89a.33.33,0,0,0,.33.33v.93a1.33,1.33,0,0,1-1-.41,1.91,1.91,0,0,1-1.31.5,1.94,1.94,0,0,1-2-1.94v-1A1.66,1.66,0,0,1,31.77,8l1.38-.79A1.57,1.57,0,0,0,33.93,6V5.11a.9.9,0,1,0-1.8,0v1l-.94.11V5.11a1.84,1.84,0,0,1,3.67,0Zm-2.95-.59a1,1,0,1,0,2,0V7.74a1.61,1.61,0,0,1-.31.24l-1.39.79a.66.66,0,0,0-.32.54Z"/><path d="M40.92,4.21h-.66a1.07,1.07,0,0,0-1.08,1.1v6.84h-.94V3.37h.65l.16.68a2.1,2.1,0,0,1,1.87-.77Z"/><path d="M47.71,3.37v8.78h-.64l-.17-.68a1.63,1.63,0,0,1-1.36.77,1.83,1.83,0,0,1-1.71-1.94V3.37h.93V10.3a1,1,0,0,0,2,0V3.37Z"/><path d="M53.74,9.54a1,1,0,0,0-.31-.75L51.49,7.17a2,2,0,0,1-.63-1.48V5.15a1.87,1.87,0,0,1,3.74,0V6l-.93.11V5.15a.94.94,0,0,0-1.88,0v.54a1,1,0,0,0,.31.76L54,8.07a2,2,0,0,1,.63,1.47v.76a1.94,1.94,0,0,1-3.88,0V9.44l.93-.11v1a1,1,0,0,0,2,0Z"/></g></g></svg>