<svg xmlns="http://www.w3.org/2000/svg" viewBox="0 0 34 34"><defs><style>.cls-1{fill:#011627;}</style></defs><g id="Capa_2" data-name="Capa 2"><g id="Capa_1-2" data-name="Capa 1"><path class="cls-1" d="M23.71,13.63a1.74,1.74,0,0,0-1.23-1.23A41,41,0,0,0,17,12.1a42.41,42.41,0,0,0-5.48.29,1.77,1.77,0,0,0-1.23,1.24A18.43,18.43,0,0,0,10,17a18.37,18.37,0,0,0,.29,3.37,1.74,1.74,0,0,0,1.23,1.23,41.08,41.08,0,0,0,5.48.3,42.41,42.41,0,0,0,5.48-.29,1.74,1.74,0,0,0,1.23-1.23A18.43,18.43,0,0,0,24,17,17.62,17.62,0,0,0,23.71,13.63ZM15.6,19.1V14.9L19.25,17Z"/><path class="cls-1" d="M17,34A17,17,0,1,1,34,17,17,17,0,0,1,17,34ZM17,2A15,15,0,1,0,32,17,15,15,0,0,0,17,2Z"/></g></g></svg>